<?xml version="1.0" standalone="no"?>
<!DOCTYPE svg PUBLIC "-//W3C//DTD SVG 1.1//EN" "http://www.w3.org/Graphics/SVG/1.1/DTD/svg11.dtd">
<svg xmlns="http://www.w3.org/2000/svg">
<defs >
<font id="YanoneKaffeesatz" horiz-adv-x="330" ><font-face
    font-family="Yanone Kaffeesatz"
    units-per-em="1000"
    panose-1="2 0 0 0 0 0 0 0 0 0"
    ascent="957"
    descent="-200"
    alphabetic="0" />
<glyph unicode=" " glyph-name="space" horiz-adv-x="185" />
<glyph unicode="!" glyph-name="exclam" horiz-adv-x="184" d="M60 31Q60 45 68 55T91 65Q107 65 115 55T124 31Q124 15 115 6T91 -4Q75 -4 68 5T60 31ZM75 697Q74 704 83 705T112 707L110 187Q109 178 101 175T77 172L75 697Z" />
<glyph unicode="&quot;" glyph-name="quotedbl" horiz-adv-x="225" d="M65 585Q63 583 54 583Q50 583 45 584Q44 589 43 605T41 644T40 690T39 735Q39 755 39 769T42 784Q44 785 49 785T60 785T71 785T77 784Q78 771 78 752T76 711T74 667T71 627T68 598T65 585ZM173
585Q172 583 169 583T163 583Q159 583 154 584Q153 589 152 605T150 644T149 690T148 735Q148 755 148 769T151 784Q153 785 158 785T169 785T180 785T186 784Q187 765 186 732T183 667T178 611T173 585Z" />
<glyph unicode="#" glyph-name="numbersign" horiz-adv-x="445" d="M308 206L304 118Q303 110 298 109T272 107L277 206H148L144 118Q143 110 138 109T112 107L117 206H46Q46 226 47 231T57 236H118L126 376H46Q46 396 47 401T57 406H127L132 487Q133 495 138
496T164 498L159 406H287L292 487Q293 495 298 496T324 498L319 406H398Q398 386 397 381T387 376H317L310 236H398Q398 216 397 211T387 206H308ZM150 236H278L286 376H157L150 236Z" />
<glyph unicode="$" glyph-name="dollar" horiz-adv-x="445" d="M204 -7Q170 -7 146 -2T107 9T84 23T77 34Q77 37 81 45T93 57Q107 45 132 36T206 26Q242 26 267 35T308 61T331 101T338 152Q338 187 321 218T262 288L150 386Q118 415 100 443T81 504Q81 551 116
581T217 616V718Q217 730 223 733T247 736V617Q276 616 297 612T331 602T351 592T358 586Q358 581 355 573T347 560Q335 568 307 577T236 586Q181 586 148 567T114 502Q114 479 131 455T173 407L298 298Q340 260 355 227T371 152Q371 88 340 45T234 -5V-104Q234
-115 228 -118T204 -121V-7Z" />
<glyph unicode="%" glyph-name="percent" horiz-adv-x="729" d="M74 523Q74 620 112 664T216 708Q248 708 273 699T315 669T340 613T349 523Q349 431 313 386T212 340Q180 340 155 346T111 372T84 428T74 523ZM107 518Q107 473 113 444T133 398T165 375T208 368Q259
368 288 407T317 524Q317 570 310 600T290 647T259 671T216 678Q166 678 137 642T107 518ZM380 175Q380 272 418 316T522 360Q554 360 579 351T621 321T646 265T655 175Q655 83 619 38T518 -8Q486 -8 461 -2T417 24T390 80T380 175ZM413 170Q413 125 419 96T439
50T471 27T514 20Q565 20 594 59T623 176Q623 222 616 252T596 299T565 323T522 330Q472 330 443 294T413 170ZM153 -8Q146 -8 142 -6Q132 -2 132 6L568 708Q574 707 578 704Q582 702 585 699T589 692Q589 692 571 662T521 582T451 470T371 341Q275 187 153 -8Z"
/>
<glyph unicode="&amp;" glyph-name="ampersand" horiz-adv-x="522" d="M244 706Q275 706 301 702T345 691T374 678T384 666Q384 658 381 652T376 643Q326 676 245 676Q220 676 196 672T153 656T123 622T111 565Q111 528 137 474T203 359T290 238T382 128Q391 150
396 172T404 213T407 248T408 272Q408 312 400 347T378 412T344 464T304 498Q335 501 357 502T402 503Q428 503 453 503T499 501Q500 497 500 485Q500 477 493 475T460 472L368 474Q376 467 388 451T412 410T432 348T440 266Q440 254 439 236T435 195T426 149T407
100Q436 69 458 48T493 18Q492 14 486 3T471 -9Q465 -9 443 11T388 67Q364 34 325 12T226 -10Q169 -10 134 6T78 49T51 108T44 173Q44 204 54 232T80 284T118 326T162 357Q125 417 101 471T77 568Q77 608 91 634T128 677T181 699T244 706ZM363 94Q320 142 271 203T180
329Q160 320 142 305T110 270T87 224T78 170Q78 146 84 120T105 73T149 37T223 22Q276 22 309 42T363 94Z" />
<glyph unicode="&apos;" glyph-name="quotesingle" horiz-adv-x="116" d="M65 585Q63 583 54 583Q50 583 45 584Q44 589 43 605T41 644T40 690T39 735Q39 755 39 769T42 784Q44 785 49 785T60 785T71 785T77 784Q78 771 78 752T76 711T74 667T71 627T68 598T65 585Z" />
<glyph unicode="(" glyph-name="parenleft" horiz-adv-x="295" d="M107 324Q107 220 126 136T171 -11T226 -116T271 -177Q269 -187 263 -193T251 -199Q245 -199 217 -164T156 -63T99 101T73 323Q73 404 86 471T118 592T160 686T203 752T237 792T254 806Q260 806
263 800T271 783Q250 761 222 723T168 629T125 496T107 324Z" />
<glyph unicode=")" glyph-name="parenright" horiz-adv-x="295" d="M189 324Q189 420 171 495T128 627T74 722T24 783Q28 794 31 800T42 806Q45 806 73 776T135 686T195 536T222 323Q222 200 197 103T139 -61T79 -163T45 -199Q29 -199 24 -177Q41 -158 69 -116T123
-11T169 136T189 324Z" />
<glyph unicode="*" glyph-name="asterisk" horiz-adv-x="473" d="M244 504Q243 492 225 495L215 672Q215 680 227 681T253 675L244 504ZM434 556Q439 553 443 547T448 535T449 524T442 518L270 463Q264 470 264 476T273 487L434 556ZM202 481Q203 473 200 468T190
466L25 522Q23 537 34 548T54 555L202 481ZM248 420Q242 430 259 436L370 284Q376 276 366 267T342 255L248 420ZM201 430Q206 435 211 433T220 425L116 269Q112 264 107 264T98 268T89 277T82 288L201 430Z" />
<glyph unicode="+" glyph-name="plus" horiz-adv-x="445" d="M240 265V118Q240 110 234 109T208 107V265H48Q48 285 49 291T59 298H208V446Q208 454 214 455T240 457V298H398Q398 278 397 272T387 265H240Z" />
<glyph unicode="," glyph-name="comma" horiz-adv-x="176" d="M65 34Q65 48 73 56T95 65Q109 65 116 58T124 28Q124 7 117 -18T101 -64T82 -99T67 -113Q62 -113 57 -109T51 -99Q68 -71 75 -47T81 2Q74 6 70 14T65 34Z" />
<glyph unicode="-" glyph-name="hyphen" horiz-adv-x="300" d="M48 265Q48 285 49 291T59 298H252Q252 278 251 272T241 265H48Z" />
<glyph unicode="." glyph-name="period" horiz-adv-x="176" d="M59 31Q59 45 67 55T90 65Q106 65 115 55T124 31Q124 16 115 6T90 -4Q75 -4 67 5T59 31Z" />
<glyph unicode="/" glyph-name="slash" horiz-adv-x="283" d="M48 -9Q45 -17 38 -18T10 -20L237 753Q239 762 245 763T273 765L48 -9Z" />
<glyph unicode="0" glyph-name="zero" horiz-adv-x="445" d="M42 296Q42 443 85 521T230 600Q279 600 312 582T365 527T393 433T402 300Q402 150 361 71T220 -8Q126 -8 84 64T42 296ZM76 287Q76 147 111 85T219 23Q302 23 335 95T369 303Q369 370 363 420T340
503T298 552T231 569Q147 569 112 496T76 287Z" />
<glyph unicode="1" glyph-name="one" horiz-adv-x="445" d="M84 536Q83 538 82 548T80 565Q80 565 92 568T122 575T162 583T203 592T235 598T250 601Q253 601 257 599Q259 598 261 598L249 32H350Q361 32 371 32T388 33Q396 33 402 34Q402 28 402 14T400 0H43Q43
1 43 5T42 14T42 23T42 29Q42 29 54 29T84 30T123 31T164 31T196 32T213 32L228 564Q226 564 203 560T154 550L84 536V536Z" />
<glyph unicode="2" glyph-name="two" horiz-adv-x="445" d="M69 526Q65 539 65 552Q65 557 76 565T110 581T164 594T237 600Q281 600 308 592T351 567T371 527T377 472Q377 409 346 355T270 248T175 143T85 32H313H361Q379 32 402 33Q402 26 402 13T399 0H46Q45
1 44 5T42 17Q42 28 48 35T65 59Q100 114 147 163T238 262T312 363T343 474Q343 495 339 512T324 541T292 561T239 568Q176 568 134 556T69 526Z" />
<glyph unicode="3" glyph-name="three" horiz-adv-x="445" d="M240 304Q268 302 295 294T344 268T378 223T391 154Q391 100 376 54T331 -27T260 -80T166 -100Q108 -100 80 -85T52 -60Q52 -49 53 -43T57 -32Q80 -50 105 -59T170 -68Q212 -68 246 -51T305 -3T343
69T357 157Q357 197 343 220T305 256T251 273T188 280L187 306Q252 346 292 390T333 484Q333 495 330 509T315 537T283 559T230 568Q167 568 129 556T61 524Q59 529 58 535T57 549Q57 556 68 565T102 581T156 594T229 600Q272 600 299 590T342 564T362 527T368
485Q368 456 357 431T327 383T286 341T240 304Z" />
<glyph unicode="4" glyph-name="four" horiz-adv-x="445" d="M311 206H406Q407 205 407 203V192Q407 186 405 180T397 174H311V16Q311 4 308 2T278 0V174H53Q47 180 47 192Q47 218 66 269T118 379T192 497T279 597Q284 602 289 602T297 603Q305 603 308 601T314
598L311 206ZM278 206L284 558Q257 530 227 491T167 405T115 308T79 206H278Z" />
<glyph unicode="5" glyph-name="five" horiz-adv-x="445" d="M386 600Q386 578 383 573T364 568H235Q180 568 110 569L89 378Q90 378 108 381T169 385Q200 386 239 381T312 355T369 296T393 194Q393 128 382 74T344 -19T273 -79T162 -100Q103 -100 73 -86T43 -61Q43
-46 48 -33Q68 -50 96 -59T165 -68Q220 -68 257 -48T317 7T349 90T359 195Q359 247 339 279T288 327T224 349T164 355Q119 355 88 347T54 338L80 600H386Z" />
<glyph unicode="6" glyph-name="six" horiz-adv-x="445" d="M270 668Q234 668 200 648T140 585T96 479T76 327Q101 381 145 409T247 437Q281 437 310 426T360 391T392 330T404 242Q404 123 358 57T213 -9Q159 -9 126 13T75 74T51 167T45 287Q45 400 63 478T114
606T187 678T276 700Q298 700 318 699T353 694T377 686T386 675Q386 667 385 660T383 651Q372 655 362 658T338 663T309 667T270 668ZM240 405Q188 405 145 373T76 280Q76 229 80 183T99 101T141 44T213 23Q291 23 331 80T372 234Q372 323 338 364T240 405Z" />
<glyph unicode="7" glyph-name="seven" horiz-adv-x="445" d="M418 600Q375 540 333 468T251 310T179 127T120 -82Q112 -82 100 -81T87 -75Q113 39 146 137T216 316T290 460T361 569Q359 569 335 569T270 569T179 568T70 568Q58 568 58 600H418Z" />
<glyph unicode="8" glyph-name="eight" horiz-adv-x="445" d="M227 706Q253 706 282 701T337 678T380 629T397 545Q397 512 385 486T354 438T312 401T267 373Q285 364 302 354T336 330Q367 304 386 271T406 180Q406 91 363 41T232 -9Q138 -9 92 43T46 180Q46 214
57 245T88 301T132 347T185 379Q167 387 151 395T120 414Q85 437 69 470T53 540Q53 583 67 614T106 666T161 696T227 706ZM306 314Q289 328 268 339T224 361Q195 352 169 335T122 293T90 240T78 180Q78 147 87 118T116 68T163 35T231 23Q302 23 338 66T375 180Q375
229 355 260T306 314ZM228 674Q200 674 175 667T129 643T97 602T85 541Q85 509 100 481T153 429Q166 420 186 411T231 391Q257 402 281 417T324 451T354 494T366 544Q366 587 353 613T319 652T274 670T228 674Z" />
<glyph unicode="9" glyph-name="nine" horiz-adv-x="445" d="M147 -71Q253 -71 308 14T370 268Q344 217 303 189T203 161Q170 161 141 172T90 207T55 267T42 355Q42 480 88 545T234 610Q287 610 320 591T371 535T395 441T402 311Q402 99 337 -2T149 -103Q118 -103
94 -99T69 -86Q69 -78 70 -72T72 -63Q93 -68 110 -69T147 -71ZM211 193Q259 193 300 224T371 313Q371 365 367 413T349 497T308 556T234 578Q156 578 116 525T75 363Q75 274 113 234T211 193Z" />
<glyph unicode=":" glyph-name="colon" horiz-adv-x="176" d="M58 387Q58 401 66 411T90 421Q105 421 114 411T123 387Q123 372 114 362T90 352Q74 352 66 361T58 387ZM58 31Q58 45 66 55T90 65Q105 65 114 55T123 31Q123 16 114 6T90 -4Q74 -4 66 5T58 31Z" />
<glyph unicode=";" glyph-name="semicolon" horiz-adv-x="176" d="M61 387Q61 401 69 411T93 421Q108 421 117 411T126 387Q126 372 117 362T93 352Q77 352 69 361T61 387ZM63 34Q63 48 71 56T93 65Q107 65 115 58T123 28Q123 7 116 -18T100 -64T81 -99T65 -113Q60
-113 56 -109T49 -99Q66 -71 73 -47T80 2Q63 10 63 34Z" />
<glyph unicode="&lt;" glyph-name="less" horiz-adv-x="400" d="M92 260L348 150Q348 136 343 130T332 123Q327 123 311 129L55 241Q48 251 48 261Q48 274 61 281L333 416Q340 408 342 403T344 393Q344 384 337 381L92 260Z" />
<glyph unicode="=" glyph-name="equal" horiz-adv-x="445" d="M48 347Q48 367 49 373T59 380H398Q398 360 397 354T387 347H48ZM48 183Q48 203 49 209T59 216H398Q398 196 397 190T387 183H48Z" />
<glyph unicode="&gt;" glyph-name="greater" horiz-adv-x="400" d="M307 274L51 384Q52 398 57 405T67 412Q71 412 75 410T88 405L345 293Q351 286 351 273Q351 259 339 254L66 119Q60 126 58 132T55 141Q55 149 62 154L307 274Z" />
<glyph unicode="?" glyph-name="question" horiz-adv-x="296" d="M97 31Q97 45 105 55T128 65Q144 65 152 55T161 31Q161 16 152 6T128 -4Q112 -4 105 5T97 31ZM142 710Q166 710 191 704T236 683T269 639T282 567Q282 525 268 490T234 426T194 373T160 327Q146
303 141 281T136 241Q136 219 139 206T141 191Q138 186 129 186T112 188Q109 194 107 202Q105 209 104 218T103 241Q103 261 108 286T131 340Q145 364 165 388T203 438T235 496T248 565Q248 604 236 626T206 660T171 674T139 677Q75 677 32 644Q31 647 30 653T29
670Q29 675 38 682T63 695T99 705T142 710Z" />
<glyph unicode="@" glyph-name="at" horiz-adv-x="768" d="M680 350Q680 430 665 488T618 583T534 638T411 656Q340 656 281 636T180 569T114 447T90 261Q90 165 101 97T131 -17T179 -92T241 -134T314 -153T396 -158Q442 -158 478 -152T542 -137T591 -118T630
-98Q632 -100 635 -109T639 -127Q639 -131 622 -141T574 -161T498 -180T399 -188Q353 -188 310 -184T229 -165T160 -121T106 -41T71 84T58 265Q58 382 84 462T157 592T270 664T413 686Q567 686 639 606T712 350Q712 267 703 209T678 112T645 51T608 19T575 6T551
3Q531 3 515 10T488 29Q476 21 448 11T374 1Q348 0 325 5T284 26T256 71T248 149Q249 197 263 227T299 276T352 301T417 308Q434 308 450 307T480 302Q481 313 481 324Q481 334 481 345T482 367Q483 396 477 414T457 443T426 457T386 461Q351 461 323 456T272 437Q269
444 269 456Q269 465 278 471Q295 480 323 486T398 492Q455 492 485 466T513 372L505 145Q503 109 503 88T500 54V53Q519 32 550 32Q560 32 581 40T625 81T663 176T680 350ZM479 276Q465 278 448 279T417 281Q389 281 365 275T321 254T291 214T278 148Q277 109
285 85T307 49T340 32T381 28Q396 28 411 31T440 39T463 51T472 65L479 276Z" />
<glyph unicode="A" glyph-name="A" horiz-adv-x="436" d="M335 207H101L47 7Q45 2 41 1T29 -1Q27 -1 22 -1T9 0L206 701Q206 705 215 705Q225 705 228 702L426 11Q429 -1 414 -1Q410 -1 404 -1T393 0L335 207ZM109 238H327L266 458Q257 491 249 522T234 580T223
627T217 656Q216 647 212 627T201 581T186 523T169 458L109 238Z" />
<glyph unicode="B" glyph-name="B" horiz-adv-x="405" d="M64 684Q64 691 68 695T89 700H189Q216 700 245 695T299 673T340 627T356 549Q356 503 346 473T320 424T288 398T255 387Q270 386 291 381T331 359T363 315T377 239Q377 155 355 107T301 35T236 6T183
0H64V684ZM97 398H194Q220 398 243 405T283 428T311 473T322 546Q322 583 310 607T279 645T236 664T186 670H97V398ZM97 31H182Q212 31 240 40T291 72T328 134T342 236Q342 282 330 308T295 348T244 364T181 367H97V31Z" />
<glyph unicode="C" glyph-name="C" horiz-adv-x="364" d="M237 710Q259 710 276 705T305 693T323 677T330 662Q330 657 328 651T322 641Q319 644 312 650T294 662T268 673T237 678Q219 678 200 674T164 657T131 619T105 553T87 452T80 309Q80 215 92 159T123 73T166
34T214 25Q233 25 251 30T284 44T310 62T328 81Q331 76 333 70T336 58Q336 49 326 37T299 15T260 -3T211 -10Q194 -10 175 -8T138 5T103 35T73 91T53 181T45 313Q45 403 53 468T75 577T108 647T148 687T192 705T237 710Z" />
<glyph unicode="D" glyph-name="D" horiz-adv-x="430" d="M191 700Q239 700 275 683T335 628T372 531T385 388Q385 263 369 187T324 69T260 14T184 0H66V684Q66 691 70 695T90 700H191ZM351 389Q351 535 312 601T187 668H99V32H184Q216 32 246 44T299 93T337 201T351
389Z" />
<glyph unicode="E" glyph-name="E" horiz-adv-x="351" d="M318 32Q318 10 317 5T309 0H67V689Q67 691 68 694Q70 700 78 700H317Q317 680 316 674T310 668H100V399H296Q296 379 295 374T287 368H100V32H318Z" />
<glyph unicode="F" glyph-name="F" horiz-adv-x="339" d="M67 0V689Q67 691 68 694Q70 700 78 700H317Q317 680 316 675T310 669H100V400H296Q296 380 295 374T287 368H100V11Q100 8 99 5Q97 0 89 0H67Z" />
<glyph unicode="G" glyph-name="G" horiz-adv-x="410" d="M251 710Q295 710 325 698T355 669Q355 658 349 648Q332 661 310 669T256 678Q217 678 185 665T128 614T91 512T78 345Q78 237 90 173T124 76T173 33T232 23Q254 23 271 28T302 40T322 56T333 71V357H216V377Q216
388 227 388H365V56Q361 50 352 39T328 17T288 -2T230 -10Q190 -10 156 3T98 54T59 161T45 344Q45 456 60 527T102 639T168 695T251 710Z" />
<glyph unicode="H" glyph-name="H" horiz-adv-x="451" d="M354 368H97V11Q97 3 93 2T64 0V689Q64 697 68 698T97 700V400H354V689Q354 697 358 698T387 700V11Q387 3 383 2T354 0V368Z" />
<glyph unicode="I" glyph-name="I" horiz-adv-x="161" d="M64 681Q64 695 68 697T97 700V11Q97 3 93 2T64 0V681Z" />
<glyph unicode="J" glyph-name="J" horiz-adv-x="298" d="M201 682Q201 696 205 698T234 700V171Q234 141 232 109T218 51T183 7T117 -10Q73 -10 47 5T21 37Q21 51 30 60Q44 43 65 33T115 22Q146 22 163 36T189 72T199 124T201 184V682Z" />
<glyph unicode="K" glyph-name="K" horiz-adv-x="392" d="M64 689Q64 697 68 698T97 700V397L333 698Q338 700 343 700T354 700Q377 700 364 684L129 393Q195 357 257 266T369 14Q374 -1 358 -1Q353 -1 349 -1T339 0Q311 78 287 133T239 226T195 290T153 336Q140
348 126 356T97 370V11Q97 3 93 2T64 0V689Z" />
<glyph unicode="L" glyph-name="L" horiz-adv-x="339" d="M99 31H319V11Q319 3 316 2T308 0H64V684Q64 696 68 698T99 700V31Z" />
<glyph unicode="M" glyph-name="M" horiz-adv-x="507" d="M64 689Q64 700 75 700H94L214 309Q215 307 220 287T234 243Q242 216 253 182Q263 215 271 241Q278 264 283 283T290 305L409 689Q410 690 412 695T420 700H442V11Q442 3 438 2T409 0L410 327Q410 330
410 346T410 385T410 437T411 495T411 551T412 597Q406 579 398 552T381 495T362 436T346 382T333 343T328 326L267 142Q264 133 256 133H238L178 326Q178 327 173 341T161 378T145 429T127 487T109 544T94 592Q94 568 94 527T95 445T96 373T97 336V11Q97 3 93
2T64 0V689Z" />
<glyph unicode="N" glyph-name="N" horiz-adv-x="466" d="M243 286Q242 288 234 307T212 357T182 425T149 500T119 569T95 624Q95 603 95 568T96 493T96 411T97 336T97 280T97 257V11Q97 3 93 2T64 0V689Q64 700 75 700H95L221 419Q222 417 231 396T253 342T284
272T317 196T347 128T369 78V689Q369 697 373 698T402 700V11Q402 0 391 0H371L243 286Z" />
<glyph unicode="O" glyph-name="O" horiz-adv-x="460" d="M45 355Q45 451 57 518T93 628T153 690T238 710Q286 710 320 692T375 631T405 521T415 355Q415 256 404 187T371 74T312 10T227 -10Q179 -10 145 8T89 68T56 181T45 355ZM80 342Q80 254 88 194T114 95T160
40T227 23Q267 23 296 40T344 98T372 201T381 358Q381 448 373 509T347 607T302 661T237 677Q197 677 168 660T119 602T90 499T80 342Z" />
<glyph unicode="P" glyph-name="P" horiz-adv-x="378" d="M183 700Q230 700 262 685T313 645T341 587T350 516Q350 410 304 358T176 306H97V11Q97 3 93 2T64 0V689Q64 700 75 700H183ZM316 517Q316 548 310 575T288 624T246 657T181 669H97V338H176Q248 338 282
386T316 517Z" />
<glyph unicode="Q" glyph-name="Q" horiz-adv-x="460" d="M45 355Q45 451 57 518T93 628T153 690T238 710Q286 710 320 692T375 631T405 521T415 355Q415 263 406 197T378 87T328 20T256 -8Q266 -63 282 -82T324 -101Q367 -101 390 -84Q394 -89 395 -94T397 -104Q397
-110 391 -114T373 -122T348 -128T319 -130Q280 -130 257 -103T221 -10Q175 -9 142 10T87 71T55 183T45 355ZM80 342Q80 254 88 194T114 95T160 40T227 23Q267 23 296 40T344 98T372 201T381 358Q381 448 373 509T347 607T302 661T237 677Q197 677 168 660T119
602T90 499T80 342Z" />
<glyph unicode="R" glyph-name="R" horiz-adv-x="383" d="M183 700Q230 700 262 685T313 645T341 587T350 516Q350 430 320 380T233 313Q242 301 257 276T289 213T320 125T341 13Q342 5 340 3T327 0H308Q299 72 283 126T251 217T220 277T198 307Q193 306 187 306T176
306H97V11Q97 3 93 2T64 0V689Q64 691 65 694Q67 700 75 700H183ZM316 516Q316 547 310 575T288 624T246 657T181 669H97V338H176Q248 338 282 386T316 516Z" />
<glyph unicode="S" glyph-name="S" horiz-adv-x="379" d="M207 710Q270 710 299 697T329 670Q329 657 318 649Q305 660 277 669T203 679Q146 679 112 653T77 582Q77 548 95 521T139 467L266 344Q288 321 303 301T327 259T339 216T343 168Q343 129 333 96T302 40T249
3T171 -10Q136 -10 112 -5T71 7T47 23T39 38Q39 52 53 61Q69 46 95 35T172 23Q245 23 277 62T310 163Q310 187 306 208T293 249T268 289T230 332L116 441Q82 476 63 509T43 581Q43 638 86 674T207 710Z" />
<glyph unicode="T" glyph-name="T" horiz-adv-x="362" d="M195 668V10Q195 2 191 1T163 0V668H5V689Q5 700 16 700H356V679Q356 668 345 668H195Z" />
<glyph unicode="U" glyph-name="U" horiz-adv-x="477" d="M97 223Q97 184 101 148T121 83T165 39T246 22Q286 22 324 30T379 47V690Q379 698 384 699T413 700V23Q403 17 386 11T346 1T298 -7T246 -10Q184 -10 148 9T93 60T69 135T64 223V689Q64 697 68 698T97 700V223Z" />
<glyph unicode="V" glyph-name="V" horiz-adv-x="421" d="M7 684Q5 692 5 696T13 700H37L171 218Q179 190 185 166T196 120T206 77T216 33Q224 78 233 120T257 218L380 684Q382 692 383 696T392 700H417L230 -8Q227 -9 222 -9T208 -10Q202 -10 197 6T183 48Q174
79 162 123T135 218T106 323T77 429Q44 550 7 684Z" />
<glyph unicode="W" glyph-name="W" horiz-adv-x="634" d="M6 684Q5 689 5 694T12 700H37L145 217Q151 189 155 168T163 127T170 89T177 48H179Q184 95 191 133T207 217L297 645Q299 652 300 656T308 661H333L434 217Q440 189 444 168T452 128T458 91T465 50H468Q473
85 479 127T495 217L593 684Q595 692 596 696T605 700H630L480 -8Q477 -9 473 -10T459 -11Q454 -11 450 2T440 36L344 443L316 600Q313 585 309 561T301 512T293 468T289 445L192 -8Q189 -9 184 -9T169 -10Q164 -10 159 6T148 51Q141 83 131 127T110 222T87 327T63
432Q36 553 6 684Z" />
<glyph unicode="X" glyph-name="X" horiz-adv-x="428" d="M238 363L415 10Q419 0 410 0H377L298 164L214 337Q210 328 202 311T182 270T158 220T131 165L51 5Q48 0 41 0H11L193 366L38 694Q37 696 37 697T39 699T51 700T74 700L134 573Q148 544 161 516T185 462T204
418T217 390Q221 399 229 418T249 461T273 515T301 573L357 694Q359 698 363 699T397 700L238 363Z" />
<glyph unicode="Y" glyph-name="Y" horiz-adv-x="358" d="M164 287L6 694Q4 699 9 699T42 700L98 553Q111 520 125 480T152 404T173 344T181 318Q181 319 189 343T210 403T237 478T264 553L316 693Q318 698 322 699T353 700L197 285V11Q197 3 193 2T164 0V287Z" />
<glyph unicode="Z" glyph-name="Z" horiz-adv-x="399" d="M55 689Q55 700 66 700H363Q368 695 368 687Q368 677 363 667L67 31H319Q333 31 345 32T366 35V11Q366 0 355 0H36Q29 3 29 14Q29 25 33 33L327 668H55V689Z" />
<glyph unicode="[" glyph-name="bracketleft" horiz-adv-x="440" d="M429 821Q429 802 427 797T410 792H205V-166H427Q427 -189 422 -193T407 -197H173V806Q173 816 178 818T200 821H429Z" />
<glyph unicode="\" glyph-name="backslash" horiz-adv-x="282" d="M271 -19Q273 -27 266 -28T240 -30L11 753Q9 762 14 763T42 765L271 -19Z" />
<glyph unicode="]" glyph-name="bracketright" horiz-adv-x="440" d="M11 -200Q11 -181 13 -177T30 -172H234V791H13Q13 814 18 818T33 822H267V-185Q267 -195 262 -197T240 -200H11Z" />
<glyph unicode="^" glyph-name="asciicircum" horiz-adv-x="430" d="M100 227Q92 220 88 218T81 216Q73 216 70 221T65 235L217 377L355 246Q361 241 361 234Q361 218 343 216L214 334L100 227Z" />
<glyph unicode="_" glyph-name="underscore" horiz-adv-x="388" d="M19 -81Q19 -61 20 -55T30 -49H369Q369 -69 368 -75T358 -81H19Z" />
<glyph unicode="`" glyph-name="grave" horiz-adv-x="155" d="M142 594Q142 594 132 602T106 621T72 647T38 673T11 693T0 702Q0 703 1 708T5 718T10 727T17 731Q17 731 27 723T52 702T85 675T118 647T143 625T155 614Q153 608 150 604Q148 600 146 597T142 594Z" />
<glyph unicode="a" glyph-name="a" horiz-adv-x="378" d="M42 470Q42 482 48 486Q65 494 109 502T207 510Q264 510 294 484T325 389V325Q325 239 324 163T320 27Q313 23 302 17T275 4T237 -6T187 -10Q160 -11 134 -7T88 12T55 56T42 136Q42 189 56 221T93 270T145
292T204 298Q228 298 251 296T293 288V383Q293 413 286 431T267 460T237 474T199 478Q145 478 105 470T47 452Q42 461 42 470ZM293 260Q275 265 253 267T213 270Q187 270 162 267T118 250T88 210T76 137Q76 95 86 72T112 37T150 23T194 21Q226 21 251 30T287 48Q290
86 291 145T293 260Z" />
<glyph unicode="b" glyph-name="b" horiz-adv-x="416" d="M66 716Q66 730 73 732T99 735V465Q126 486 158 498T239 510Q270 510 295 500T338 469T366 411T376 322Q376 248 367 195T343 104T309 45T268 11T224 -6T182 -10Q105 -10 66 20V716ZM99 43Q109 35 129
28T184 21Q207 21 234 29T286 68T326 155T342 309Q342 358 335 390T314 442T278 470T226 478Q190 478 158 467T99 429V43Z" />
<glyph unicode="c" glyph-name="c" horiz-adv-x="346" d="M313 474Q313 470 312 464T306 452Q294 462 273 470T223 479Q200 479 175 472T128 439T94 366T80 235Q80 167 89 125T115 60T155 29T205 21Q242 21 268 32T308 58Q314 47 314 36Q314 29 306 21T282 6T245
-5T198 -10Q166 -10 139 -2T91 32T59 108T47 239Q47 329 64 382T107 464T166 501T229 510Q245 510 260 507T287 499T306 488T313 474Z" />
<glyph unicode="d" glyph-name="d" horiz-adv-x="416" d="M316 453Q298 467 281 473T232 479Q201 479 174 465T126 421T94 347T82 241Q82 166 92 123T119 57T162 28T217 21Q245 21 271 26T317 45L316 453ZM316 717Q316 731 323 733T350 735V20Q326 6 290 -2T210
-10Q177 -10 147 -3T95 30T60 106T47 240Q47 310 61 361T100 445T157 494T226 510Q254 510 276 505T316 487V717Z" />
<glyph unicode="e" glyph-name="e" horiz-adv-x="386" d="M224 510Q258 510 281 499T320 467T342 417T349 353Q349 323 348 294T342 242Q311 236 278 233T214 227T156 225T109 224H78V219Q78 153 88 114T117 54T160 28T214 22Q250 22 283 31T340 59Q343 51 344
45T345 34Q345 27 334 20T305 6T263 -5T212 -10Q176 -10 146 -3T93 29T58 98T45 221Q45 320 62 377T105 464T162 502T224 510ZM224 479Q202 479 178 474T132 446T96 378T78 254Q91 254 118 254T179 255T248 259T313 269Q315 290 316 307T317 342Q316 374 312 399T297
442T269 469T224 479Z" />
<glyph unicode="f" glyph-name="f" horiz-adv-x="243" d="M16 469Q16 491 17 495T28 500H99V566Q99 624 114 658T152 711T203 734T257 740Q302 740 320 732T339 717Q339 711 338 707T334 697Q316 703 299 705T258 708Q237 708 215 705T174 687T144 643T132 564V500H249Q249
478 248 474T238 469H132V11Q132 0 121 0H99V469H16Z" />
<glyph unicode="g" glyph-name="g" horiz-adv-x="411" d="M220 510Q228 510 240 509T264 505H390Q391 503 392 500T393 491Q393 475 375 475Q359 475 340 476T304 479Q337 465 356 432T376 347Q376 309 367 274T339 213T288 170T214 154Q175 154 147 163Q127 149
110 129T92 95Q92 87 104 80T139 66T193 56T260 47Q286 44 310 38T352 21T382 -10T393 -59Q393 -85 381 -109T345 -154T285 -186T199 -198Q149 -198 119 -189T71 -166T47 -132T41 -93Q41 -75 48 -57T68 -21T97 11T129 37Q97 46 78 59T58 89Q58 99 63 110T78 133T99
155T123 175Q84 198 71 240T58 331Q58 376 71 409T106 465T157 499T220 510ZM220 481Q194 481 171 472T130 444T102 397T91 330Q91 303 95 277T112 230T150 197T217 184Q250 184 273 198T312 236T335 289T343 350Q343 417 310 449T220 481ZM248 18Q198 23 160 30Q145
20 130 6T102 -24T83 -57T75 -90Q75 -106 79 -119T97 -143T135 -160T200 -166Q240 -166 270 -157T320 -134T350 -100T360 -61Q360 -38 351 -24T327 -1T291 12T248 18Z" />
<glyph unicode="h" glyph-name="h" horiz-adv-x="410" d="M63 717Q63 731 69 733T95 735V464Q128 489 164 499T235 510Q273 510 297 501T334 473T353 430T358 374V11Q358 3 354 2T325 0V370Q325 394 321 414T306 448T276 470T227 478Q198 478 162 467T95 426V11Q95
3 91 2T63 0V717Z" />
<glyph unicode="i" glyph-name="i" horiz-adv-x="167" d="M101 11Q101 3 96 2T66 0V482Q66 496 74 498T101 500V11ZM61 678Q62 711 84 711Q106 711 106 677Q104 645 82 645Q59 646 61 678Z" />
<glyph unicode="j" glyph-name="j" horiz-adv-x="180" d="M106 -37Q106 -72 102 -101T84 -150T49 -182T-11 -194Q-64 -194 -93 -181T-122 -153Q-122 -142 -115 -132Q-98 -144 -73 -153T-10 -163Q18 -163 34 -154T59 -128T70 -85T73 -27V482Q73 496 79 498T106
500V-37ZM68 678Q69 711 91 711Q113 711 113 677Q111 645 89 645Q66 646 68 678Z" />
<glyph unicode="k" glyph-name="k" horiz-adv-x="400" d="M66 717Q66 731 72 733T99 735V436Q115 454 135 468T177 491T218 505T254 510Q302 510 322 488T343 421Q343 385 328 358T292 310T251 278T220 261Q235 263 256 257T299 235T337 192T362 124Q364 112 365
99T366 71Q366 57 365 43T362 13Q361 8 361 6T357 2T346 0T326 0Q328 19 329 35T331 67Q331 95 327 117T317 157Q308 181 294 197T265 222T233 234T202 238Q193 238 185 237T170 234Q162 232 150 228T127 219Q114 214 99 208V11Q99 3 96 2T66 0V717ZM309 417Q309
478 246 478Q213 478 175 461T99 400V239Q142 252 180 269T246 309T292 358T309 417Z" />
<glyph unicode="l" glyph-name="l" horiz-adv-x="166" d="M99 11Q99 3 95 2T66 0V717Q66 731 73 733T99 735V11Z" />
<glyph unicode="m" glyph-name="m" horiz-adv-x="615" d="M296 393Q295 414 292 430T281 457T256 473T213 479Q186 479 159 474T99 453V11Q99 3 94 2T66 0V477Q145 510 212 510Q254 510 277 500T312 471Q342 491 377 500T444 510Q480 510 502 501T536 472T551
425T555 361V11Q555 3 551 2T522 0V367Q522 396 519 417T508 452T483 472T442 479Q415 479 387 472T328 444V11Q328 5 327 3T315 0H296V393Z" />
<glyph unicode="n" glyph-name="n" horiz-adv-x="416" d="M64 474Q102 491 143 500T228 510Q269 510 295 501T337 474T357 430T363 369V11Q363 3 359 2T329 0V362Q329 392 325 414T310 450T279 472T228 479Q214 479 198 478T163 473T128 464T96 451V11Q96 3 92
2T64 0V474Z" />
<glyph unicode="o" glyph-name="o" horiz-adv-x="396" d="M37 248Q37 388 82 449T204 510Q242 510 271 498T319 457T349 377T359 249Q359 117 316 54T193 -10Q158 -10 129 -2T80 34T48 112T37 248ZM71 242Q71 175 79 132T103 65T142 31T194 21Q254 21 289 76T325
252Q325 321 317 365T293 434T254 469T203 479Q173 479 149 467T107 427T81 354T71 242Z" />
<glyph unicode="p" glyph-name="p" horiz-adv-x="413" d="M66 469Q99 490 133 500T209 510Q248 510 279 500T331 464T364 398T375 295Q375 193 356 133T310 41T252 0T198 -10Q162 -10 136 4T99 32V-194Q90 -197 82 -197Q66 -197 66 -184V469ZM99 78Q116 49 141
35T193 21Q211 21 236 29T285 63T324 142T341 283Q341 341 333 379T307 439T265 470T207 479Q175 479 149 471T99 449V78Z" />
<glyph unicode="q" glyph-name="q" horiz-adv-x="424" d="M357 -184Q357 -194 354 -196T336 -198H324V50Q304 22 272 6T197 -10Q174 -10 148 -3T99 29T61 99T46 223Q46 369 100 439T246 510Q281 510 307 503T357 478V-184ZM324 458Q313 467 291 473T241 479Q164
479 123 416T81 220Q81 152 94 113T126 54T167 27T208 21Q238 20 271 37T324 96V458Z" />
<glyph unicode="r" glyph-name="r" horiz-adv-x="285" d="M64 466Q98 490 132 500T195 510Q230 510 250 502T270 481Q270 476 268 470T263 460Q252 467 236 472T199 478Q140 478 97 445V11Q97 3 92 2T64 0V466Z" />
<glyph unicode="s" glyph-name="s" horiz-adv-x="387" d="M212 510Q245 510 269 505T309 492T333 477T341 465Q341 456 331 443Q304 461 277 470T213 479Q186 479 163 474T123 459T95 435T85 401Q85 380 96 362T142 322L264 245Q301 218 319 189T338 121Q338 55
296 23T176 -10Q114 -10 81 2T47 27Q47 33 48 39T56 50Q79 35 105 29T174 22Q233 22 268 43T304 113Q304 148 287 174T235 226L123 295Q100 309 86 322T63 347T53 372T50 400Q50 426 62 446T96 481T147 502T212 510Z" />
<glyph unicode="t" glyph-name="t" horiz-adv-x="303" d="M114 469H33Q33 489 34 494T43 500H114V663Q114 676 119 678T147 680V500H282Q282 479 281 474T274 469H147V148Q147 121 148 98T154 57T170 31T201 21Q225 21 239 26T270 39Q274 31 274 20Q274 6 251
-2T196 -10Q166 -10 150 2T125 36T116 87T114 151V469Z" />
<glyph unicode="u" glyph-name="u" horiz-adv-x="437" d="M368 23Q331 5 291 -2T215 -10Q171 -10 143 0T99 32T76 91T69 180V489Q69 493 69 495T73 499T82 500T102 500V174Q102 130 107 101T125 54T162 29T222 21Q242 21 274 26T335 48V489Q335 497 340 498T368 500V23Z" />
<glyph unicode="v" glyph-name="v" horiz-adv-x="366" d="M32 488Q29 497 35 498T63 500L116 315Q130 265 142 216T165 128Q176 82 186 40H187Q196 82 207 128Q216 167 228 216T254 316L301 489Q303 497 308 498T336 500L197 -8Q195 -9 187 -9T177 -9Q175 -9 171
4T160 40L32 488Z" />
<glyph unicode="w" glyph-name="w" horiz-adv-x="563" d="M30 489Q28 497 33 498T63 500L111 301Q123 250 133 205T151 125Q160 85 168 49H170Q173 65 179 94T193 156T209 226T225 294L263 470Q265 481 275 481H296L343 290Q355 242 365 200T384 123Q394 83 402
49H403Q406 65 411 93T423 155T438 227T455 301L497 489Q498 493 499 495T503 499T513 500T533 500L473 246L413 -8Q409 -9 405 -9H394Q392 -9 386 6T374 48L356 117Q342 166 331 212T309 298T292 367T281 416Q277 398 271 368T255 298T235 212T212 116L181 -8Q175
-9 171 -9H159Q157 -9 153 4T143 40Q137 64 129 96T112 164T94 239T75 313Q54 397 30 489Z" />
<glyph unicode="x" glyph-name="x" horiz-adv-x="459" d="M252 266L428 10Q434 2 429 1T393 0L329 93Q314 115 299 138T270 181T245 217T229 241L128 91L71 7Q67 2 60 1T28 0L209 265L54 494Q52 498 56 499T89 500L150 411L231 288Q235 294 244 307T264 338T289
375T315 413L371 494Q373 496 374 497T379 499T390 500T412 500L252 266Z" />
<glyph unicode="y" glyph-name="y" horiz-adv-x="381" d="M42 488Q39 497 43 498T72 500L165 160Q172 134 177 110T187 65Q191 42 196 21Q200 42 204 65Q208 85 213 110T225 161L310 488Q312 497 316 498T347 500L207 -34Q183 -123 150 -158T72 -193Q43 -193 25
-188T6 -171Q6 -166 8 -160T15 -150Q27 -156 44 -159T72 -162Q104 -162 131 -130T179 -16L42 488Z" />
<glyph unicode="z" glyph-name="z" horiz-adv-x="388" d="M346 500Q347 499 348 497Q349 495 350 493T351 488Q351 477 346 468L76 32H216Q270 32 300 33T349 38V20Q349 9 347 5T337 0H42Q40 1 39 4Q37 10 37 17Q37 28 41 33L310 469H174Q129 469 96 468T43 465Q42
472 42 475T42 483Q42 500 53 500H346Z" />
<glyph unicode="{" glyph-name="braceleft" horiz-adv-x="293" d="M268 744Q274 737 274 724Q274 711 263 711Q237 710 216 706T179 692T156 665T147 619Q147 580 153 531T160 416Q160 362 142 337T96 302Q125 292 142 273T160 208Q160 140 154 89T147 -9Q147
-48 155 -69T178 -101T217 -115T269 -121Q270 -125 270 -128T271 -134Q271 -151 257 -151Q220 -151 193 -145T148 -123T122 -82T113 -18Q113 36 120 86T127 200Q127 242 109 259T64 281Q62 286 62 290T61 298Q61 313 74 320Q86 327 95 333T112 350T123 376T127
418Q127 477 120 526T113 628Q113 662 124 684T157 719T206 738T268 744Z" />
<glyph unicode="|" glyph-name="bar" horiz-adv-x="379" d="M205 -189Q205 -197 199 -198T173 -200V803Q173 812 178 813T205 815V-189Z" />
<glyph unicode="}" glyph-name="braceright" horiz-adv-x="293" d="M24 -151Q19 -144 19 -131Q19 -118 30 -118Q56 -117 77 -113T114 -99T137 -72T146 -26Q146 13 140 62T133 177Q133 231 151 256T197 292Q168 301 151 321T133 385Q133 453 139 504T146 602Q146
641 138 662T115 694T76 708T24 714Q23 718 23 721T22 727Q22 744 36 744Q109 744 144 716T180 611Q180 584 178 559T173 507T168 453T165 393Q165 351 183 334T229 312Q232 303 232 295Q232 279 219 273Q207 266 198 260T181 243T169 217T165 175Q165 116 172
67T180 -35Q180 -68 169 -90T136 -126T87 -145T24 -151Z" />
<glyph unicode="~" glyph-name="asciitilde" horiz-adv-x="400" d="M13 256Q18 265 28 275T52 295T85 311T127 318Q152 318 169 310T201 291T233 273T275 264Q303 264 324 276T359 309Q367 318 375 314T388 297Q381 287 371 276T348 255T316 239T272 232Q244 232
225 240T191 259T160 277T124 286Q107 286 93 281T69 270T50 256T37 242Q31 237 24 241T13 256Z" />
<glyph unicode="&#xa0;" glyph-name="uni00A0" horiz-adv-x="185" />
<glyph unicode="&#xa1;" glyph-name="exclamdown" horiz-adv-x="184" d="M125 474Q125 460 117 450T94 439Q78 439 69 449T60 474Q60 489 69 499T94 509Q109 509 117 500T125 474ZM110 -188Q110 -195 101 -196T73 -198L75 322Q76 331 84 334T108 337L110 -188Z" />
<glyph unicode="&#xa2;" glyph-name="cent" horiz-adv-x="445" d="M279 509H280Q296 509 311 506T338 498T357 488T364 478Q364 473 363 465T357 452Q343 463 328 470T282 477Q256 477 230 469T182 434T147 356T133 219Q133 150 142 111T168 51T209 26T265 21Q294
21 317 32T359 58Q362 53 363 47T365 35Q365 30 357 23T334 8T302 -5T262 -10H260V-128Q260 -139 255 -142T231 -146V-9Q201 -8 177 0T135 33T108 103T98 222Q98 306 111 359T145 444T194 489T249 507V630Q249 641 255 644T279 648V509Z" />
<glyph unicode="&#xa3;" glyph-name="sterling" horiz-adv-x="397" d="M129 279Q129 219 131 157T137 34L342 31Q346 23 346 15Q346 8 340 5T325 0T306 -1T288 0H105Q100 83 98 148T96 279H15Q15 299 16 305T26 312H96V329Q96 411 108 463T142 544T191 584T253
595Q295 595 323 582T352 554Q352 541 345 530Q325 547 305 554T253 562Q227 562 204 554T165 520T139 450T129 331V312H291Q291 292 290 286T280 279H129Z" />
<glyph unicode="&#xa5;" glyph-name="yen" horiz-adv-x="445" d="M203 183H62Q62 200 64 206T78 212H203V285L181 340H62Q62 357 64 363T78 369H170L44 694Q43 696 43 697T47 699T59 700T81 700L136 553Q149 520 163 482T189 409T209 350T219 321Q220 325 228
349T249 408T275 481T302 553L354 693Q355 696 356 697T361 699T372 700T392 700L267 369H373Q373 352 370 346T356 340H256L236 287V212H374Q374 195 371 189T357 183H236V11Q236 3 232 2T203 0V183Z" />
<glyph unicode="&#xa6;" glyph-name="brokenbar" horiz-adv-x="224" d="M129 344Q129 333 112 333Q110 333 106 333T96 335V729Q96 742 112 742Q115 742 119 742T129 740V344ZM129 -186Q129 -197 112 -197Q110 -197 106 -197T96 -195V208Q96 222 112 222Q120 222
129 219V-186Z" />
<glyph unicode="&#xa7;" glyph-name="section" horiz-adv-x="383" d="M209 704Q256 704 286 689T322 662Q323 659 323 655Q323 643 313 635Q293 652 268 661T206 670Q156 670 129 651T101 601Q101 578 110 564T139 529Q151 517 169 502T207 471T247 438T279 407Q305
381 317 358T329 302Q329 274 312 246T260 199L272 188Q296 163 307 145T319 97Q319 52 281 24T176 -4Q128 -4 98 11T63 38Q62 41 62 45Q62 58 72 65Q92 48 117 39T179 30Q229 30 256 49T284 99Q284 122 275 136T246 171Q234 183 216 198T178 229T138 262T106 293Q80
319 68 342T56 398Q56 426 72 454T124 501Q118 506 113 512Q88 537 77 555T66 603Q66 648 103 676T209 704ZM127 313Q144 293 176 268T237 219Q263 231 280 256T297 302Q297 329 287 347T258 387Q240 406 208 431T147 480Q133 475 122 465T104 444T92 420T88 398Q88
371 98 353T127 313Z" />
<glyph unicode="&#xa8;" glyph-name="dieresis" horiz-adv-x="202" d="M0 658Q0 671 8 681T30 691Q45 691 54 682T63 658Q63 643 54 634T30 624Q0 624 0 658ZM140 658Q140 671 148 681T170 691Q185 691 193 682T202 658Q202 643 193 634T170 624Q140 624 140 658Z" />
<glyph unicode="&#xa9;" glyph-name="copyright" horiz-adv-x="458" d="M289 662Q289 660 286 651T281 640Q273 645 267 648T247 652Q235 652 222 648T199 631T183 593T176 526Q176 493 180 474T192 446T211 433T236 430Q249 430 261 435T282 445Q284 442 287
435T290 426Q290 421 273 412T233 403Q214 403 199 406T172 422T154 459T148 526Q148 578 157 608T179 653T209 673T242 678Q259 678 274 672T289 662ZM41 539Q41 656 93 708T235 761Q280 761 314 750T371 714T406 646T418 540Q418 432 369 377T231 321Q187 321
152 329T92 361T54 427T41 539ZM70 534Q70 480 80 445T110 388T158 359T224 350Q299 350 344 398T389 542Q389 597 379 633T349 692T301 723T237 732Q199 732 168 722T116 688T82 626T70 534Z" />
<glyph unicode="&#xaa;" glyph-name="ordfeminine" horiz-adv-x="345" d="M66 680Q80 691 110 700T186 710Q205 710 223 706T256 692T279 663T288 618V317Q277 310 245 300T170 289Q148 289 128 292T92 308T67 344T57 408Q57 447 67 470T94 505T133 522T181 526Q201
526 222 523T257 515V610Q257 633 250 647T231 668T205 677T176 679Q141 679 113 670T70 652Q64 656 63 666T66 680ZM257 486Q243 490 224 493T190 497Q168 497 149 495T116 484T94 456T86 404Q86 376 93 359T113 333T142 320T178 317Q201 317 223 323T257 335V486Z"
/>
<glyph unicode="&#xab;" glyph-name="guillemotleft" horiz-adv-x="418" d="M37 256Q37 259 43 271T60 302T84 341T112 385Q145 437 188 500Q193 500 196 497T203 491Q207 487 209 483Q209 480 203 469T187 441T165 404T139 363Q108 315 69 256Q109 194 141 144Q154
123 167 102T190 64T207 36T213 22Q211 15 208 11Q202 0 195 0Q150 66 116 120Q101 143 87 165T62 206T44 238T37 256ZM191 250Q191 253 197 265T214 294T238 331T266 372Q299 420 342 480Q347 480 351 477T357 471Q360 467 362 463Q362 460 356 449T340 423T318
388T293 350Q262 305 224 250Q263 195 295 151Q308 132 321 114T344 80T361 55T367 43Q365 36 362 32Q356 21 349 21Q304 80 270 128Q255 149 241 169T216 206T198 234T191 250Z" />
<glyph unicode="&#xac;" glyph-name="logicalnot" horiz-adv-x="400" d="M355 111Q347 108 339 108Q331 108 327 112T322 122V255H36Q34 260 34 263T33 271Q33 278 37 283T47 288H355V111Z" />
<glyph unicode="&#xae;" glyph-name="registered" horiz-adv-x="458" d="M41 539Q41 656 93 708T235 761Q280 761 314 750T371 714T406 646T418 540Q418 432 369 377T231 321Q187 321 152 329T92 361T54 427T41 539ZM70 534Q70 480 80 445T110 388T158 359T224
350Q299 350 344 398T389 542Q389 597 379 633T349 692T301 723T237 732Q199 732 168 722T116 688T82 626T70 534ZM227 681Q275 681 293 660T311 609Q311 550 264 533Q274 522 292 493T317 416Q317 408 310 408H291Q285 438 277 459T260 495T244 517T235 527H194V416Q194
409 187 409T168 408V677Q168 678 169 679Q171 681 173 681H227ZM286 608Q286 629 273 643T223 657H194V550H222Q255 550 270 566T286 608Z" />
<glyph unicode="&#xaf;" glyph-name="overscore" horiz-adv-x="246" d="M2 634Q0 639 0 642T0 650Q2 667 14 667H244Q246 662 246 658T246 650Q244 634 232 634H2Z" />
<glyph unicode="&#xb0;" glyph-name="degree" horiz-adv-x="382" d="M108 655Q108 699 132 720T197 741Q237 741 257 722T277 655Q277 613 254 592T190 570Q172 570 157 573T131 586T114 611T108 655ZM137 652Q137 623 150 611T190 598Q248 598 248 656Q248 688
235 700T197 713Q168 713 153 700T137 652Z" />
<glyph unicode="&#xb1;" glyph-name="plusminus" horiz-adv-x="445" d="M240 272V125Q240 117 234 116T208 114V272H48Q48 292 49 298T59 305H208V453Q208 461 214 462T240 464V305H398Q398 285 397 279T387 272H240ZM48 10Q48 30 49 36T59 43H398Q398 23 397
17T387 10H48Z" />
<glyph unicode="&#xb2;" glyph-name="twosuperior" horiz-adv-x="416" d="M85 626Q79 632 77 637T75 648Q75 655 86 665T117 686T163 703T217 710Q253 710 276 701T312 677T330 643T335 601Q335 561 312 526T254 456T180 389T107 321H352Q355 312 355 306Q355
289 342 289H64Q62 294 62 297T61 304Q61 310 62 316T69 327Q105 365 145 398T220 463T276 528T299 598Q299 613 296 627T283 653T256 670T210 677Q163 677 134 660T85 626Z" />
<glyph unicode="&#xb3;" glyph-name="threesuperior" horiz-adv-x="439" d="M159 511Q159 516 162 521T173 526Q193 526 213 525T249 522Q284 544 298 566T312 614Q312 624 308 635T294 655T266 671T220 678Q178 678 146 666T91 634Q82 642 83 652T89 666Q104
680 138 695T224 710Q259 710 282 702T320 681T340 652T346 619Q346 587 331 561T286 514Q322 503 343 477T364 414Q364 348 318 314T193 279Q148 279 119 289T79 310Q74 315 74 322Q74 333 86 342Q106 326 130 319T198 311Q258 311 294 337T331 410Q331 443 309
464T254 491Q234 494 210 495T163 496Q161 498 160 503T159 511Z" />
<glyph unicode="&#xb4;" glyph-name="acute" horiz-adv-x="155" d="M13 586Q11 586 9 589T5 596Q2 600 0 606Q24 629 48 650T92 687T125 714T138 724Q142 724 145 720T150 711T153 701T155 695Q154 694 142 684T109 658T64 623T13 586Z" />
<glyph unicode="&#xb5;" glyph-name="mu" horiz-adv-x="439" d="M368 23Q339 10 299 0T218 -10Q135 -10 101 35V-182Q101 -190 96 -192T83 -194Q78 -194 75 -194T69 -192V490Q69 504 85 504Q88 504 92 504T101 502V128Q101 70 133 46T217 22Q254 22 283 28T336
45V489Q336 496 339 500T352 504Q354 504 358 504T368 502V23Z" />
<glyph unicode="&#xb6;" glyph-name="paragraph" horiz-adv-x="551" d="M362 10Q362 1 357 -1T344 -3Q335 -3 329 0V209Q311 199 282 194T231 189Q198 189 166 199T108 236T67 308T51 424Q51 560 102 634T250 709Q288 709 313 703T362 684V10ZM329 662Q320 668
299 673T246 678Q168 678 126 613T84 425Q84 363 97 324T132 261T181 229T236 220Q254 219 282 224T329 241V662ZM481 10Q481 -1 464 -1Q462 -1 458 -1T448 1V676Q448 689 465 689Q467 689 471 689T481 687V10Z" />
<glyph unicode="&#xb7;" glyph-name="middot" horiz-adv-x="198" d="M63 270Q63 284 71 294T95 304Q110 304 119 294T128 270Q128 255 119 245T95 235Q79 235 71 244T63 270Z" />
<glyph unicode="&#xb8;" glyph-name="cedilla" horiz-adv-x="115" d="M62 3L49 -61Q50 -61 53 -60Q55 -60 58 -60T67 -59Q84 -59 99 -71T115 -112Q115 -133 109 -146T94 -168T73 -179T50 -182Q28 -182 15 -179Q7 -177 0 -175Q1 -169 2 -164Q4 -153 8 -149Q13 -144
24 -149T50 -155Q65 -155 76 -148T87 -118Q87 -95 76 -89T51 -82Q44 -82 38 -83T27 -85Q21 -87 15 -88L34 3H62Z" />
<glyph unicode="&#xb9;" glyph-name="onesuperior" horiz-adv-x="429" d="M82 644Q80 647 79 650T77 660Q77 672 91 677Q109 681 132 687T177 698T215 706T236 710Q238 710 242 710T250 708V321H353Q355 316 355 312T355 305Q355 289 343 289H77Q74 295 74 303Q74
321 87 321H217V673L82 644Z" />
<glyph unicode="&#xba;" glyph-name="ordmasculine" horiz-adv-x="357" d="M48 498Q48 555 58 595T86 660T129 698T184 710Q215 710 238 701T277 667T301 602T309 498Q309 392 274 341T174 290Q145 290 122 298T83 329T57 392T48 498ZM79 493Q79 441 85 408T104
355T133 328T174 320Q223 320 251 365T279 501Q279 554 273 588T254 643T225 671T186 679Q161 679 142 670T108 638T87 581T79 493Z" />
<glyph unicode="&#xbb;" glyph-name="guillemotright" horiz-adv-x="415" d="M378 256Q378 252 371 239T353 207T328 166T299 120Q265 66 221 0Q215 1 211 4Q202 9 202 22Q202 24 208 35T224 63T246 101T273 143Q305 193 345 256Q306 315 275 363Q262 384 250
404T228 440T212 468T206 483Q206 488 209 491T216 496Q220 499 227 500Q269 437 302 385Q316 363 330 342T354 302T371 272T378 256ZM227 250Q227 246 220 234T202 205T177 168T148 127Q114 79 70 20Q64 22 60 25Q51 30 51 42Q51 44 57 54T73 79T96 112T123 150L195
250Q156 305 125 350Q112 369 100 388T78 422T62 449T56 463Q56 468 59 471T66 476Q70 479 76 480Q118 420 151 372Q165 351 179 331T203 294T220 265T227 250Z" />
<glyph unicode="&#xbc;" glyph-name="onequarter" horiz-adv-x="883" d="M82 644Q80 647 79 650T77 660Q77 672 91 677Q109 681 132 687T177 698T215 706T236 710Q238 710 242 710T250 708V321H353Q355 316 355 312T355 305Q355 289 343 289H77Q74 295 74 303Q74
321 87 321H217V673L82 644ZM726 111H805Q808 105 808 94Q808 89 806 84T799 79H726V11Q726 -3 706 -3Q698 -3 694 -2V79H494Q490 87 490 92Q490 97 498 121Q508 153 529 193T577 274T632 351T689 413Q698 422 712 422Q720 422 726 420V111ZM694 110L695 373Q675
355 651 325T603 260T559 186T528 110H694ZM257 -3Q255 -8 248 -8Q241 -8 235 -4T227 8L678 704Q681 711 689 711Q701 711 709 696L257 -3Z" />
<glyph unicode="&#xbd;" glyph-name="onehalf" horiz-adv-x="921" d="M82 644Q80 647 79 650T77 660Q77 672 91 677Q109 681 132 687T177 698T215 706T236 710Q238 710 242 710T250 708V321H353Q355 316 355 312T355 305Q355 289 343 289H77Q74 295 74 303Q74
321 87 321H217V673L82 644ZM257 -3Q255 -8 248 -8Q241 -8 235 -4T227 8L678 704Q681 711 689 711Q701 711 709 696L257 -3ZM577 337Q567 347 567 359Q567 366 578 376T609 397T655 414T709 421Q745 421 768 412T804 388T822 354T827 312Q827 272 804 237T746 167T672
100T599 32H844Q847 23 847 17Q847 0 834 0H556Q554 5 554 8T553 15Q553 21 554 27T561 38Q597 76 637 109T712 174T768 239T791 309Q791 324 788 338T775 364T748 381T702 388Q655 388 626 371T577 337Z" />
<glyph unicode="&#xbe;" glyph-name="threequarters" horiz-adv-x="880" d="M159 511Q159 516 162 521T173 526Q193 526 213 525T249 522Q284 544 298 566T312 614Q312 624 308 635T294 655T266 671T220 678Q178 678 146 666T91 634Q82 642 83 652T89 666Q104
680 138 695T224 710Q259 710 282 702T320 681T340 652T346 619Q346 587 331 561T286 514Q322 503 343 477T364 414Q364 348 318 314T193 279Q148 279 119 289T79 310Q74 315 74 322Q74 333 86 342Q106 326 130 319T198 311Q258 311 294 337T331 410Q331 443 309
464T254 491Q234 494 210 495T163 496Q161 498 160 503T159 511ZM723 111H802Q805 105 805 94Q805 89 803 84T796 79H723V11Q723 -3 703 -3Q695 -3 691 -2V79H491Q487 87 487 92Q487 97 495 121Q505 153 526 193T574 274T629 351T686 413Q695 422 709 422Q717 422
723 420V111ZM691 110L692 373Q672 355 648 325T600 260T556 186T525 110H691ZM271 -3Q269 -8 262 -8Q255 -8 249 -4T241 8L692 704Q695 711 703 711Q715 711 723 696L271 -3Z" />
<glyph unicode="&#xbf;" glyph-name="questiondown" horiz-adv-x="298" d="M199 472Q199 458 191 448T168 438Q152 438 144 448T135 472Q135 487 144 497T168 507Q184 507 191 498T199 472ZM154 -194Q130 -194 105 -189T60 -167T27 -123T14 -51Q14 -9 28 26T62
90T102 143T136 189Q150 213 155 235T160 275Q160 297 157 310T155 325Q158 330 167 330T185 328Q187 321 189 313Q191 306 192 297T194 275Q194 255 188 230T165 176Q151 152 131 128T93 78T61 20T48 -49Q48 -88 60 -110T90 -144T126 -158T158 -161Q220 -161 264
-129Q265 -131 266 -137T267 -154Q267 -159 258 -166T233 -179T197 -189T154 -194Z" />
<glyph unicode="&#xc0;" glyph-name="Agrave" horiz-adv-x="436" d="M335 207H101L47 7Q45 2 41 1T29 -1Q27 -1 22 -1T9 0L206 701Q206 705 215 705Q225 705 228 702L426 11Q429 -1 414 -1Q410 -1 404 -1T393 0L335 207ZM109 238H327L266 458Q257 491 249 522T234
580T223 627T217 656Q216 647 212 627T201 581T186 523T169 458L109 238ZM246 794Q246 794 236 802T210 821T176 847T142 873T115 893T104 902Q104 903 105 908T109 918T114 927T121 931Q121 931 131 923T156 902T189 875T222 847T247 825T259 814Q257 808 254
804Q252 800 250 797T246 794Z" />
<glyph unicode="&#xc1;" glyph-name="Aacute" horiz-adv-x="436" d="M335 207H101L47 7Q45 2 41 1T29 -1Q27 -1 22 -1T9 0L206 701Q206 705 215 705Q225 705 228 702L426 11Q429 -1 414 -1Q410 -1 404 -1T393 0L335 207ZM109 238H327L266 458Q257 491 249 522T234
580T223 627T217 656Q216 647 212 627T201 581T186 523T169 458L109 238ZM194 786Q192 786 190 789T186 796Q183 800 181 806Q205 829 229 850T273 887T306 914T319 924Q323 924 326 920T331 911T334 901T336 895Q335 894 323 884T290 858T245 823T194 786Z" />
<glyph unicode="&#xc2;" glyph-name="Acircumflex" horiz-adv-x="436" d="M335 207H101L47 7Q45 2 41 1T29 -1Q27 -1 22 -1T9 0L206 701Q206 705 215 705Q225 705 228 702L426 11Q429 -1 414 -1Q410 -1 404 -1T393 0L335 207ZM109 238H327L266 458Q257 491 249
522T234 580T223 627T217 656Q216 647 212 627T201 581T186 523T169 458L109 238ZM208 909Q212 911 218 911Q226 911 233 903L281 855Q299 837 314 821T330 804Q330 802 322 795T302 787Q278 811 260 831Q244 848 231 862T217 879Q192 853 172 833Q155 816 140
802T122 788Q110 788 105 794T98 803L208 909Z" />
<glyph unicode="&#xc3;" glyph-name="Atilde" horiz-adv-x="436" d="M335 207H101L47 7Q45 2 41 1T29 -1Q27 -1 22 -1T9 0L206 701Q206 705 215 705Q225 705 228 702L426 11Q429 -1 414 -1Q410 -1 404 -1T393 0L335 207ZM109 238H327L266 458Q257 491 249 522T234
580T223 627T217 656Q216 647 212 627T201 581T186 523T169 458L109 238ZM76 824Q99 863 121 874T169 886Q187 886 198 878T218 859T237 841T264 832Q285 832 297 840T318 857T330 874T338 882Q342 882 345 879T350 872Q353 868 355 863Q350 853 343 842T325 822T299
806T262 799Q239 799 226 808T203 828T184 848T162 857Q147 857 136 849T117 832T104 814T96 806Q89 806 82 815Q78 819 76 824Z" />
<glyph unicode="&#xc4;" glyph-name="Adieresis" horiz-adv-x="436" d="M335 207H101L47 7Q45 2 41 1T29 -1Q27 -1 22 -1T9 0L206 701Q206 705 215 705Q225 705 228 702L426 11Q429 -1 414 -1Q410 -1 404 -1T393 0L335 207ZM109 238H327L266 458Q257 491 249 522T234
580T223 627T217 656Q216 647 212 627T201 581T186 523T169 458L109 238ZM116 858Q116 871 124 881T146 891Q161 891 170 882T179 858Q179 843 170 834T146 824Q116 824 116 858ZM256 858Q256 871 264 881T286 891Q301 891 309 882T318 858Q318 843 309 834T286
824Q256 824 256 858Z" />
<glyph unicode="&#xc5;" glyph-name="Aring" horiz-adv-x="436" d="M335 207H101L47 7Q45 2 41 1T29 -1Q27 -1 22 -1T9 0L206 701Q206 705 215 705Q225 705 228 702L426 11Q429 -1 414 -1Q410 -1 404 -1T393 0L335 207ZM109 238H327L266 458Q257 491 249 522T234
580T223 627T217 656Q216 647 212 627T201 581T186 523T169 458L109 238ZM132 868Q132 913 156 933T220 954Q261 954 280 935T300 868Q300 826 278 805T213 783Q176 783 154 801T132 868ZM161 866Q161 840 174 826T214 812Q241 812 256 826T271 869Q271 901 258
913T221 925Q192 925 177 913T161 866Z" />
<glyph unicode="&#xc6;" glyph-name="AE" horiz-adv-x="666" d="M632 32Q632 10 631 5T623 0H381V207H160L56 7Q54 2 50 1T38 -1Q36 -1 31 -1T19 0L376 693Q378 700 387 700H631Q631 680 630 674T624 668H414V399H611Q611 379 610 374T602 368H414V32H632ZM176
238H381V650Q372 630 361 606T337 555T312 503T288 454L176 238Z" />
<glyph unicode="&#xc7;" glyph-name="Ccedilla" horiz-adv-x="364" d="M237 710Q259 710 276 705T305 693T323 677T330 662Q330 657 328 651T322 641Q319 644 312 650T294 662T268 673T237 678Q219 678 200 674T164 657T131 619T105 553T87 452T80 309Q80 215
92 159T123 73T166 34T214 25Q233 25 251 30T284 44T310 62T328 81Q331 76 333 70T336 58Q336 49 327 38T302 17T265 -1T219 -10L209 -61Q210 -61 213 -60Q215 -60 218 -60T227 -59Q244 -59 259 -71T275 -112Q275 -133 269 -146T254 -168T233 -179T210 -182Q188
-182 175 -179Q167 -177 160 -175Q161 -169 162 -164Q164 -153 168 -149Q173 -144 184 -149T210 -155Q225 -155 236 -148T247 -118Q247 -95 236 -89T211 -82Q204 -82 198 -83T187 -85Q181 -87 175 -88L191 -9Q167 -8 141 3T94 48T59 145T45 313Q45 403 53 468T75
577T108 647T148 687T192 705T237 710Z" />
<glyph unicode="&#xc8;" glyph-name="Egrave" horiz-adv-x="351" d="M318 32Q318 10 317 5T309 0H67V689Q67 691 68 694Q70 700 78 700H317Q317 680 316 674T310 668H100V399H296Q296 379 295 374T287 368H100V32H318ZM232 794Q232 794 222 802T196 821T162 847T128
873T101 893T90 902Q90 903 91 908T95 918T100 927T107 931Q107 931 117 923T142 902T175 875T208 847T233 825T245 814Q243 808 240 804Q238 800 236 797T232 794Z" />
<glyph unicode="&#xc9;" glyph-name="Eacute" horiz-adv-x="351" d="M318 32Q318 10 317 5T309 0H67V689Q67 691 68 694Q70 700 78 700H317Q317 680 316 674T310 668H100V399H296Q296 379 295 374T287 368H100V32H318ZM181 786Q179 786 177 789T173 796Q170 800
168 806Q192 829 216 850T260 887T293 914T306 924Q310 924 313 920T318 911T321 901T323 895Q322 894 310 884T277 858T232 823T181 786Z" />
<glyph unicode="&#xca;" glyph-name="Ecircumflex" horiz-adv-x="351" d="M318 32Q318 10 317 5T309 0H67V689Q67 691 68 694Q70 700 78 700H317Q317 680 316 674T310 668H100V399H296Q296 379 295 374T287 368H100V32H318ZM195 909Q199 911 205 911Q213 911 220
903L268 855Q286 837 301 821T317 804Q317 802 309 795T289 787Q265 811 247 831Q231 848 218 862T204 879Q179 853 159 833Q142 816 127 802T109 788Q97 788 92 794T85 803L195 909Z" />
<glyph unicode="&#xcb;" glyph-name="Edieresis" horiz-adv-x="351" d="M318 32Q318 10 317 5T309 0H67V689Q67 691 68 694Q70 700 78 700H317Q317 680 316 674T310 668H100V399H296Q296 379 295 374T287 368H100V32H318ZM103 858Q103 871 111 881T133 891Q148
891 157 882T166 858Q166 843 157 834T133 824Q103 824 103 858ZM243 858Q243 871 251 881T273 891Q288 891 296 882T305 858Q305 843 296 834T273 824Q243 824 243 858Z" />
<glyph unicode="&#xcc;" glyph-name="Igrave" horiz-adv-x="161" d="M64 681Q64 695 68 697T97 700V11Q97 3 93 2T64 0V681ZM110 794Q110 794 100 802T74 821T40 847T6 873T-21 893T-32 902Q-32 903 -31 908T-27 918T-22 927T-15 931Q-15 931 -5 923T20 902T53
875T86 847T111 825T123 814Q121 808 118 804Q116 800 114 797T110 794Z" />
<glyph unicode="&#xcd;" glyph-name="Iacute" horiz-adv-x="161" d="M64 681Q64 695 68 697T97 700V11Q97 3 93 2T64 0V681ZM58 786Q56 786 54 789T50 796Q47 800 45 806Q69 829 93 850T137 887T170 914T183 924Q187 924 190 920T195 911T198 901T200 895Q199
894 187 884T154 858T109 823T58 786Z" />
<glyph unicode="&#xce;" glyph-name="Icircumflex" horiz-adv-x="161" d="M64 681Q64 695 68 697T97 700V11Q97 3 93 2T64 0V681ZM72 909Q76 911 82 911Q90 911 97 903L145 855Q163 837 178 821T194 804Q194 802 186 795T166 787Q142 811 124 831Q108 848 95 862T81
879Q56 853 36 833Q19 816 4 802T-14 788Q-26 788 -31 794T-38 803L72 909Z" />
<glyph unicode="&#xcf;" glyph-name="Idieresis" horiz-adv-x="161" d="M64 681Q64 695 68 697T97 700V11Q97 3 93 2T64 0V681ZM-19 858Q-19 871 -11 881T11 891Q26 891 35 882T44 858Q44 843 35 834T11 824Q-19 824 -19 858ZM121 858Q121 871 129 881T151 891Q166
891 174 882T183 858Q183 843 174 834T151 824Q121 824 121 858Z" />
<glyph unicode="&#xd0;" glyph-name="Eth" horiz-adv-x="430" d="M191 700Q239 700 275 683T335 628T372 531T385 389Q385 263 369 187T324 69T260 14T184 0H66V355H18Q18 375 19 381T29 387H66V684Q66 691 70 695T90 700H191ZM351 389Q351 535 312 601T187 668H99V387H223Q223
367 222 361T212 355H99V32H184Q216 32 246 44T299 93T337 201T351 389Z" />
<glyph unicode="&#xd1;" glyph-name="Ntilde" horiz-adv-x="466" d="M243 286Q242 288 234 307T212 357T182 425T149 500T119 569T95 624Q95 603 95 568T96 493T96 411T97 336T97 280T97 257V11Q97 3 93 2T64 0V689Q64 700 75 700H95L221 419Q222 417 231 396T253
342T284 272T317 196T347 128T369 78V689Q369 697 373 698T402 700V11Q402 0 391 0H371L243 286ZM102 824Q125 863 147 874T195 886Q213 886 224 878T244 859T263 841T290 832Q311 832 323 840T344 857T356 874T364 882Q368 882 371 879T376 872Q379 868 381 863Q376
853 369 842T351 822T325 806T288 799Q265 799 252 808T229 828T210 848T188 857Q173 857 162 849T143 832T130 814T122 806Q115 806 108 815Q104 819 102 824Z" />
<glyph unicode="&#xd2;" glyph-name="Ograve" horiz-adv-x="460" d="M45 355Q45 451 57 518T93 628T153 690T238 710Q286 710 320 692T375 631T405 521T415 355Q415 256 404 187T371 74T312 10T227 -10Q179 -10 145 8T89 68T56 181T45 355ZM80 342Q80 254 88 194T114
95T160 40T227 23Q267 23 296 40T344 98T372 201T381 358Q381 448 373 509T347 607T302 661T237 677Q197 677 168 660T119 602T90 499T80 342ZM270 794Q270 794 260 802T234 821T200 847T166 873T139 893T128 902Q128 903 129 908T133 918T138 927T145 931Q145
931 155 923T180 902T213 875T246 847T271 825T283 814Q281 808 278 804Q276 800 274 797T270 794Z" />
<glyph unicode="&#xd3;" glyph-name="Oacute" horiz-adv-x="460" d="M45 355Q45 451 57 518T93 628T153 690T238 710Q286 710 320 692T375 631T405 521T415 355Q415 256 404 187T371 74T312 10T227 -10Q179 -10 145 8T89 68T56 181T45 355ZM80 342Q80 254 88 194T114
95T160 40T227 23Q267 23 296 40T344 98T372 201T381 358Q381 448 373 509T347 607T302 661T237 677Q197 677 168 660T119 602T90 499T80 342ZM218 786Q216 786 214 789T210 796Q207 800 205 806Q229 829 253 850T297 887T330 914T343 924Q347 924 350 920T355
911T358 901T360 895Q359 894 347 884T314 858T269 823T218 786Z" />
<glyph unicode="&#xd4;" glyph-name="Ocircumflex" horiz-adv-x="460" d="M45 355Q45 451 57 518T93 628T153 690T238 710Q286 710 320 692T375 631T405 521T415 355Q415 256 404 187T371 74T312 10T227 -10Q179 -10 145 8T89 68T56 181T45 355ZM80 342Q80 254
88 194T114 95T160 40T227 23Q267 23 296 40T344 98T372 201T381 358Q381 448 373 509T347 607T302 661T237 677Q197 677 168 660T119 602T90 499T80 342ZM232 909Q236 911 242 911Q250 911 257 903L305 855Q323 837 338 821T354 804Q354 802 346 795T326 787Q302
811 284 831Q268 848 255 862T241 879Q216 853 196 833Q179 816 164 802T146 788Q134 788 129 794T122 803L232 909Z" />
<glyph unicode="&#xd5;" glyph-name="Otilde" horiz-adv-x="460" d="M45 355Q45 451 57 518T93 628T153 690T238 710Q286 710 320 692T375 631T405 521T415 355Q415 256 404 187T371 74T312 10T227 -10Q179 -10 145 8T89 68T56 181T45 355ZM80 342Q80 254 88 194T114
95T160 40T227 23Q267 23 296 40T344 98T372 201T381 358Q381 448 373 509T347 607T302 661T237 677Q197 677 168 660T119 602T90 499T80 342ZM100 824Q123 863 145 874T193 886Q211 886 222 878T242 859T261 841T288 832Q309 832 321 840T342 857T354 874T362
882Q366 882 369 879T374 872Q377 868 379 863Q374 853 367 842T349 822T323 806T286 799Q263 799 250 808T227 828T208 848T186 857Q171 857 160 849T141 832T128 814T120 806Q113 806 106 815Q102 819 100 824Z" />
<glyph unicode="&#xd6;" glyph-name="Odieresis" horiz-adv-x="460" d="M45 355Q45 451 57 518T93 628T153 690T238 710Q286 710 320 692T375 631T405 521T415 355Q415 256 404 187T371 74T312 10T227 -10Q179 -10 145 8T89 68T56 181T45 355ZM80 342Q80 254 88
194T114 95T160 40T227 23Q267 23 296 40T344 98T372 201T381 358Q381 448 373 509T347 607T302 661T237 677Q197 677 168 660T119 602T90 499T80 342ZM140 858Q140 871 148 881T170 891Q185 891 194 882T203 858Q203 843 194 834T170 824Q140 824 140 858ZM280
858Q280 871 288 881T310 891Q325 891 333 882T342 858Q342 843 333 834T310 824Q280 824 280 858Z" />
<glyph unicode="&#xd7;" glyph-name="multiply" horiz-adv-x="445" d="M221 256L132 154Q126 148 121 151T101 169L199 281L101 394Q115 408 120 411T131 409L221 306L312 409Q318 415 323 412T343 394L243 281L342 169Q328 155 323 152T311 154L221 256Z" />
<glyph unicode="&#xd8;" glyph-name="Oslash" horiz-adv-x="466" d="M91 -17Q89 -17 79 -16T67 -5Q67 -4 70 4T77 22T86 44T94 62Q70 104 59 175T48 355Q48 451 59 518T94 628T154 690T238 710Q274 710 302 700T351 667L372 719Q378 719 383 717Q388 715 391 713T396
707Q396 706 393 699T387 681T379 659T371 641Q396 599 407 530T418 355Q418 256 407 187T373 74T315 10T230 -10Q192 -10 163 0T113 35Q106 19 99 2T91 -17ZM384 358Q384 449 376 510T348 609Q337 581 319 534T278 431T233 316T189 206T154 117T134 65Q167 23
228 23Q268 23 297 40T346 96T375 199T384 358ZM82 342Q82 166 117 93L331 637Q314 658 291 667T239 677Q200 677 171 660T122 602T92 499T82 342Z" />
<glyph unicode="&#xd9;" glyph-name="Ugrave" horiz-adv-x="477" d="M97 223Q97 184 101 148T121 83T165 39T246 22Q286 22 324 30T379 47V690Q379 698 384 699T413 700V23Q403 17 386 11T346 1T298 -7T246 -10Q184 -10 148 9T93 60T69 135T64 223V689Q64 697
68 698T97 700V223ZM275 794Q275 794 265 802T239 821T205 847T171 873T144 893T133 902Q133 903 134 908T138 918T143 927T150 931Q150 931 160 923T185 902T218 875T251 847T276 825T288 814Q286 808 283 804Q281 800 279 797T275 794Z" />
<glyph unicode="&#xda;" glyph-name="Uacute" horiz-adv-x="477" d="M97 223Q97 184 101 148T121 83T165 39T246 22Q286 22 324 30T379 47V690Q379 698 384 699T413 700V23Q403 17 386 11T346 1T298 -7T246 -10Q184 -10 148 9T93 60T69 135T64 223V689Q64 697
68 698T97 700V223ZM224 786Q222 786 220 789T216 796Q213 800 211 806Q235 829 259 850T303 887T336 914T349 924Q353 924 356 920T361 911T364 901T366 895Q365 894 353 884T320 858T275 823T224 786Z" />
<glyph unicode="&#xdb;" glyph-name="Ucircumflex" horiz-adv-x="477" d="M97 223Q97 184 101 148T121 83T165 39T246 22Q286 22 324 30T379 47V690Q379 698 384 699T413 700V23Q403 17 386 11T346 1T298 -7T246 -10Q184 -10 148 9T93 60T69 135T64 223V689Q64
697 68 698T97 700V223ZM238 909Q242 911 248 911Q256 911 263 903L311 855Q329 837 344 821T360 804Q360 802 352 795T332 787Q308 811 290 831Q274 848 261 862T247 879Q222 853 202 833Q185 816 170 802T152 788Q140 788 135 794T128 803L238 909Z" />
<glyph unicode="&#xdc;" glyph-name="Udieresis" horiz-adv-x="477" d="M97 223Q97 184 101 148T121 83T165 39T246 22Q286 22 324 30T379 47V690Q379 698 384 699T413 700V23Q403 17 386 11T346 1T298 -7T246 -10Q184 -10 148 9T93 60T69 135T64 223V689Q64 697
68 698T97 700V223ZM146 858Q146 871 154 881T176 891Q191 891 200 882T209 858Q209 843 200 834T176 824Q146 824 146 858ZM286 858Q286 871 294 881T316 891Q331 891 339 882T348 858Q348 843 339 834T316 824Q286 824 286 858Z" />
<glyph unicode="&#xdd;" glyph-name="Yacute" horiz-adv-x="358" d="M164 287L6 694Q4 699 9 699T42 700L98 553Q111 520 125 480T152 404T173 344T181 318Q181 319 189 343T210 403T237 478T264 553L316 693Q318 698 322 699T353 700L197 285V11Q197 3 193 2T164
0V287ZM160 786Q158 786 156 789T152 796Q149 800 147 806Q171 829 195 850T239 887T272 914T285 924Q289 924 292 920T297 911T300 901T302 895Q301 894 289 884T256 858T211 823T160 786Z" />
<glyph unicode="&#xde;" glyph-name="Thorn" horiz-adv-x="378" d="M64 690Q64 698 70 699T87 700H97V567H183Q230 567 262 552T313 512T341 454T350 383Q350 277 304 225T176 173H97V11Q97 3 93 2T64 0V690ZM316 384Q316 415 310 442T288 491T246 524T181 536H97V206Q101
206 113 206T140 206T165 205T176 205Q248 205 282 253T316 384Z" />
<glyph unicode="&#xdf;" glyph-name="germandbls" horiz-adv-x="475" d="M65 549Q65 592 76 621T107 669T155 696T218 704Q272 704 308 690T366 654T398 608T408 563Q408 540 398 523T371 493T336 469T301 446T274 421T263 390Q263 370 277 354T313 323T360 290T406
250T442 200T457 134Q457 62 416 27T305 -9Q278 -9 257 -5T220 6T197 20T189 32Q189 41 193 48T200 56Q218 39 241 31T303 22Q328 22 349 28T387 47T413 82T423 132Q423 164 409 189T373 234T326 272T280 308T244 345T229 389Q229 412 239 428T266 458T301 482T336
504T363 530T374 563Q374 580 366 599T339 635T292 662T222 673Q159 673 129 641T98 528V14Q98 3 94 -2T79 -8Q70 -8 64 -5Q60 -3 58 -1Q59 3 61 9Q63 14 64 21T65 37V549Z" />
<glyph unicode="&#xe0;" glyph-name="agrave" horiz-adv-x="378" d="M42 470Q42 482 48 486Q65 494 109 502T207 510Q264 510 294 484T325 389V325Q325 239 324 163T320 27Q313 23 302 17T275 4T237 -6T187 -10Q160 -11 134 -7T88 12T55 56T42 136Q42 189 56 221T93
270T145 292T204 298Q228 298 251 296T293 288V383Q293 413 286 431T267 460T237 474T199 478Q145 478 105 470T47 452Q42 461 42 470ZM293 260Q275 265 253 267T213 270Q187 270 162 267T118 250T88 210T76 137Q76 95 86 72T112 37T150 23T194 21Q226 21 251 30T287
48Q290 86 291 145T293 260ZM221 594Q221 594 211 602T185 621T151 647T117 673T90 693T79 702Q79 703 80 708T84 718T89 727T96 731Q96 731 106 723T131 702T164 675T197 647T222 625T234 614Q232 608 229 604Q227 600 225 597T221 594Z" />
<glyph unicode="&#xe1;" glyph-name="aacute" horiz-adv-x="378" d="M42 470Q42 482 48 486Q65 494 109 502T207 510Q264 510 294 484T325 389V325Q325 239 324 163T320 27Q313 23 302 17T275 4T237 -6T187 -10Q160 -11 134 -7T88 12T55 56T42 136Q42 189 56 221T93
270T145 292T204 298Q228 298 251 296T293 288V383Q293 413 286 431T267 460T237 474T199 478Q145 478 105 470T47 452Q42 461 42 470ZM293 260Q275 265 253 267T213 270Q187 270 162 267T118 250T88 210T76 137Q76 95 86 72T112 37T150 23T194 21Q226 21 251 30T287
48Q290 86 291 145T293 260ZM169 586Q167 586 165 589T161 596Q158 600 156 606Q180 629 204 650T248 687T281 714T294 724Q298 724 301 720T306 711T309 701T311 695Q310 694 298 684T265 658T220 623T169 586Z" />
<glyph unicode="&#xe2;" glyph-name="acircumflex" horiz-adv-x="378" d="M42 470Q42 482 48 486Q65 494 109 502T207 510Q264 510 294 484T325 389V325Q325 239 324 163T320 27Q313 23 302 17T275 4T237 -6T187 -10Q160 -11 134 -7T88 12T55 56T42 136Q42 189
56 221T93 270T145 292T204 298Q228 298 251 296T293 288V383Q293 413 286 431T267 460T237 474T199 478Q145 478 105 470T47 452Q42 461 42 470ZM293 260Q275 265 253 267T213 270Q187 270 162 267T118 250T88 210T76 137Q76 95 86 72T112 37T150 23T194 21Q226
21 251 30T287 48Q290 86 291 145T293 260ZM183 709Q187 711 193 711Q201 711 208 703L256 655Q274 637 289 621T305 604Q305 602 297 595T277 587Q253 611 235 631Q219 648 206 662T192 679Q167 653 147 633Q130 616 115 602T97 588Q85 588 80 594T73 603L183
709Z" />
<glyph unicode="&#xe3;" glyph-name="atilde" horiz-adv-x="378" d="M42 470Q42 482 48 486Q65 494 109 502T207 510Q264 510 294 484T325 389V325Q325 239 324 163T320 27Q313 23 302 17T275 4T237 -6T187 -10Q160 -11 134 -7T88 12T55 56T42 136Q42 189 56 221T93
270T145 292T204 298Q228 298 251 296T293 288V383Q293 413 286 431T267 460T237 474T199 478Q145 478 105 470T47 452Q42 461 42 470ZM293 260Q275 265 253 267T213 270Q187 270 162 267T118 250T88 210T76 137Q76 95 86 72T112 37T150 23T194 21Q226 21 251 30T287
48Q290 86 291 145T293 260ZM51 624Q74 663 96 674T144 686Q162 686 173 678T193 659T212 641T239 632Q260 632 272 640T293 657T305 674T313 682Q317 682 320 679T325 672Q328 668 330 663Q325 653 318 642T300 622T274 606T237 599Q214 599 201 608T178 628T159
648T137 657Q122 657 111 649T92 632T79 614T71 606Q64 606 57 615Q53 619 51 624Z" />
<glyph unicode="&#xe4;" glyph-name="adieresis" horiz-adv-x="378" d="M42 470Q42 482 48 486Q65 494 109 502T207 510Q264 510 294 484T325 389V325Q325 239 324 163T320 27Q313 23 302 17T275 4T237 -6T187 -10Q160 -11 134 -7T88 12T55 56T42 136Q42 189 56
221T93 270T145 292T204 298Q228 298 251 296T293 288V383Q293 413 286 431T267 460T237 474T199 478Q145 478 105 470T47 452Q42 461 42 470ZM293 260Q275 265 253 267T213 270Q187 270 162 267T118 250T88 210T76 137Q76 95 86 72T112 37T150 23T194 21Q226 21
251 30T287 48Q290 86 291 145T293 260ZM91 658Q91 671 99 681T121 691Q136 691 145 682T154 658Q154 643 145 634T121 624Q91 624 91 658ZM231 658Q231 671 239 681T261 691Q276 691 284 682T293 658Q293 643 284 634T261 624Q231 624 231 658Z" />
<glyph unicode="&#xe5;" glyph-name="aring" horiz-adv-x="378" d="M42 470Q42 482 48 486Q65 494 109 502T207 510Q264 510 294 484T325 389V325Q325 239 324 163T320 27Q313 23 302 17T275 4T237 -6T187 -10Q160 -11 134 -7T88 12T55 56T42 136Q42 189 56 221T93
270T145 292T204 298Q228 298 251 296T293 288V383Q293 413 286 431T267 460T237 474T199 478Q145 478 105 470T47 452Q42 461 42 470ZM293 260Q275 265 253 267T213 270Q187 270 162 267T118 250T88 210T76 137Q76 95 86 72T112 37T150 23T194 21Q226 21 251 30T287
48Q290 86 291 145T293 260ZM107 668Q107 713 131 733T195 754Q236 754 255 735T275 668Q275 626 253 605T188 583Q151 583 129 601T107 668ZM136 666Q136 640 149 626T189 612Q216 612 231 626T246 669Q246 701 233 713T196 725Q167 725 152 713T136 666Z" />
<glyph unicode="&#xe6;" glyph-name="ae" horiz-adv-x="653" d="M46 468Q46 473 49 477T55 484Q71 493 108 501T205 510Q259 510 288 488T322 409Q335 443 352 463T390 493T432 507T475 510Q542 510 571 469T600 358Q600 328 599 297T592 242Q570 238 548 237T502
235Q444 235 396 242T328 253V219Q328 151 338 113T367 54T409 29T463 24Q500 24 533 33T590 60Q593 53 594 44T596 29Q596 25 585 19T556 6T513 -4T463 -8Q416 -8 380 4T323 60V22Q310 14 277 3T187 -8Q160 -9 134 -6T88 12T55 56T42 137Q42 190 56 222T93 271T145
294T204 300Q228 300 251 298T293 290V384Q293 414 286 432T265 461T234 475T193 479Q146 479 110 471T51 449Q46 458 46 468ZM293 262Q275 267 253 269T213 272Q187 272 162 269T118 251T88 210T76 134Q76 94 86 72T112 38T150 24T194 21Q225 21 253 28T293 46V262ZM474
479Q453 479 430 474T387 450T351 391T330 282Q340 280 358 277T399 271T447 266T498 263Q533 263 563 269Q565 290 566 309T567 346Q566 411 548 445T474 479Z" />
<glyph unicode="&#xe7;" glyph-name="ccedilla" horiz-adv-x="346" d="M313 474Q313 470 312 464T306 452Q294 462 273 470T223 479Q200 479 175 472T128 439T94 366T80 235Q80 167 89 125T115 60T155 29T205 21Q242 21 268 32T308 58Q314 47 314 36Q314 23 286
8T210 -10L200 -61Q201 -61 204 -60Q206 -60 209 -60T218 -59Q235 -59 250 -71T266 -112Q266 -133 260 -146T245 -168T224 -179T201 -182Q179 -182 166 -179Q158 -177 151 -175Q152 -169 153 -164Q155 -153 159 -149Q164 -144 175 -149T201 -155Q216 -155 227 -148T238
-118Q238 -95 227 -89T202 -82Q195 -82 189 -83T178 -85Q172 -87 166 -88L182 -9Q153 -8 129 2T86 40T58 114T47 239Q47 329 64 382T107 464T166 501T229 510Q245 510 260 507T287 499T306 488T313 474Z" />
<glyph unicode="&#xe8;" glyph-name="egrave" horiz-adv-x="386" d="M224 510Q258 510 281 499T320 467T342 417T349 353Q349 323 348 294T342 242Q311 236 278 233T214 227T156 225T109 224H78V219Q78 153 88 114T117 54T160 28T214 22Q250 22 283 31T340 59Q343
51 344 45T345 34Q345 27 334 20T305 6T263 -5T212 -10Q176 -10 146 -3T93 29T58 98T45 221Q45 320 62 377T105 464T162 502T224 510ZM224 479Q202 479 178 474T132 446T96 378T78 254Q91 254 118 254T179 255T248 259T313 269Q315 290 316 307T317 342Q316 374
312 399T297 442T269 469T224 479ZM247 594Q247 594 237 602T211 621T177 647T143 673T116 693T105 702Q105 703 106 708T110 718T115 727T122 731Q122 731 132 723T157 702T190 675T223 647T248 625T260 614Q258 608 255 604Q253 600 251 597T247 594Z" />
<glyph unicode="&#xe9;" glyph-name="eacute" horiz-adv-x="386" d="M224 510Q258 510 281 499T320 467T342 417T349 353Q349 323 348 294T342 242Q311 236 278 233T214 227T156 225T109 224H78V219Q78 153 88 114T117 54T160 28T214 22Q250 22 283 31T340 59Q343
51 344 45T345 34Q345 27 334 20T305 6T263 -5T212 -10Q176 -10 146 -3T93 29T58 98T45 221Q45 320 62 377T105 464T162 502T224 510ZM224 479Q202 479 178 474T132 446T96 378T78 254Q91 254 118 254T179 255T248 259T313 269Q315 290 316 307T317 342Q316 374
312 399T297 442T269 469T224 479ZM196 586Q194 586 192 589T188 596Q185 600 183 606Q207 629 231 650T275 687T308 714T321 724Q325 724 328 720T333 711T336 701T338 695Q337 694 325 684T292 658T247 623T196 586Z" />
<glyph unicode="&#xea;" glyph-name="ecircumflex" horiz-adv-x="386" d="M224 510Q258 510 281 499T320 467T342 417T349 353Q349 323 348 294T342 242Q311 236 278 233T214 227T156 225T109 224H78V219Q78 153 88 114T117 54T160 28T214 22Q250 22 283 31T340
59Q343 51 344 45T345 34Q345 27 334 20T305 6T263 -5T212 -10Q176 -10 146 -3T93 29T58 98T45 221Q45 320 62 377T105 464T162 502T224 510ZM224 479Q202 479 178 474T132 446T96 378T78 254Q91 254 118 254T179 255T248 259T313 269Q315 290 316 307T317 342Q316
374 312 399T297 442T269 469T224 479ZM209 709Q213 711 219 711Q227 711 234 703L282 655Q300 637 315 621T331 604Q331 602 323 595T303 587Q279 611 261 631Q245 648 232 662T218 679Q193 653 173 633Q156 616 141 602T123 588Q111 588 106 594T99 603L209 709Z"
/>
<glyph unicode="&#xeb;" glyph-name="edieresis" horiz-adv-x="386" d="M224 510Q258 510 281 499T320 467T342 417T349 353Q349 323 348 294T342 242Q311 236 278 233T214 227T156 225T109 224H78V219Q78 153 88 114T117 54T160 28T214 22Q250 22 283 31T340
59Q343 51 344 45T345 34Q345 27 334 20T305 6T263 -5T212 -10Q176 -10 146 -3T93 29T58 98T45 221Q45 320 62 377T105 464T162 502T224 510ZM224 479Q202 479 178 474T132 446T96 378T78 254Q91 254 118 254T179 255T248 259T313 269Q315 290 316 307T317 342Q316
374 312 399T297 442T269 469T224 479ZM117 658Q117 671 125 681T147 691Q162 691 171 682T180 658Q180 643 171 634T147 624Q117 624 117 658ZM257 658Q257 671 265 681T287 691Q302 691 310 682T319 658Q319 643 310 634T287 624Q257 624 257 658Z" />
<glyph unicode="&#xec;" glyph-name="igrave" horiz-adv-x="167" d="M101 11Q101 3 96 2T66 0V482Q66 496 74 498T101 500V11ZM369 594Q369 594 359 602T333 621T299 647T265 673T238 693T227 702Q227 703 228 708T232 718T237 727T244 731Q244 731 254 723T279
702T312 675T345 647T370 625T382 614Q380 608 377 604Q375 600 373 597T369 594Z" />
<glyph unicode="&#xed;" glyph-name="iacute" horiz-adv-x="167" d="M101 11Q101 3 96 2T66 0V482Q66 496 74 498T101 500V11ZM61 586Q59 586 57 589T53 596Q50 600 48 606Q72 629 96 650T140 687T173 714T186 724Q190 724 193 720T198 711T201 701T203 695Q202
694 190 684T157 658T112 623T61 586Z" />
<glyph unicode="&#xee;" glyph-name="icircumflex" horiz-adv-x="167" d="M101 11Q101 3 96 2T66 0V482Q66 496 74 498T101 500V11ZM331 709Q335 711 341 711Q349 711 356 703L404 655Q422 637 437 621T453 604Q453 602 445 595T425 587Q401 611 383 631Q367 648
354 662T340 679Q315 653 295 633Q278 616 263 602T245 588Q233 588 228 594T221 603L331 709Z" />
<glyph unicode="&#xef;" glyph-name="idieresis" horiz-adv-x="167" d="M101 11Q101 3 96 2T66 0V482Q66 496 74 498T101 500V11ZM240 658Q240 671 248 681T270 691Q285 691 294 682T303 658Q303 643 294 634T270 624Q240 624 240 658ZM380 658Q380 671 388 681T410
691Q425 691 433 682T442 658Q442 643 433 634T410 624Q380 624 380 658Z" />
<glyph unicode="&#xf0;" glyph-name="eth" horiz-adv-x="446" d="M290 655Q350 586 377 497T405 289Q405 231 399 177T374 82T320 15T228 -10Q139 -10 93 53T47 256Q47 382 93 445T227 508Q267 508 299 494T355 451Q342 505 319 552T258 642L163 604Q156 622 155
628T162 638L234 667Q218 683 201 697T163 726Q168 743 184 743Q193 743 199 737Q235 711 266 680L348 713Q356 694 357 688T350 679L290 655ZM372 298Q372 347 366 392Q317 477 231 477Q159 477 120 422T80 254Q80 192 90 148T119 75T166 34T228 21Q276 21 304
45T348 108T367 197T372 298Z" />
<glyph unicode="&#xf1;" glyph-name="ntilde" horiz-adv-x="416" d="M64 474Q102 491 143 500T228 510Q269 510 295 501T337 474T357 430T363 369V11Q363 3 359 2T329 0V362Q329 392 325 414T310 450T279 472T228 479Q214 479 198 478T163 473T128 464T96 451V11Q96
3 92 2T64 0V474ZM84 624Q107 663 129 674T177 686Q195 686 206 678T226 659T245 641T272 632Q293 632 305 640T326 657T338 674T346 682Q350 682 353 679T358 672Q361 668 363 663Q358 653 351 642T333 622T307 606T270 599Q247 599 234 608T211 628T192 648T170
657Q155 657 144 649T125 632T112 614T104 606Q97 606 90 615Q86 619 84 624Z" />
<glyph unicode="&#xf2;" glyph-name="ograve" horiz-adv-x="396" d="M37 248Q37 388 82 449T204 510Q242 510 271 498T319 457T349 377T359 249Q359 117 316 54T193 -10Q158 -10 129 -2T80 34T48 112T37 248ZM71 242Q71 175 79 132T103 65T142 31T194 21Q254 21
289 76T325 252Q325 321 317 365T293 434T254 469T203 479Q173 479 149 467T107 427T81 354T71 242ZM233 594Q233 594 223 602T197 621T163 647T129 673T102 693T91 702Q91 703 92 708T96 718T101 727T108 731Q108 731 118 723T143 702T176 675T209 647T234 625T246
614Q244 608 241 604Q239 600 237 597T233 594Z" />
<glyph unicode="&#xf3;" glyph-name="oacute" horiz-adv-x="396" d="M37 248Q37 388 82 449T204 510Q242 510 271 498T319 457T349 377T359 249Q359 117 316 54T193 -10Q158 -10 129 -2T80 34T48 112T37 248ZM71 242Q71 175 79 132T103 65T142 31T194 21Q254 21
289 76T325 252Q325 321 317 365T293 434T254 469T203 479Q173 479 149 467T107 427T81 354T71 242ZM182 586Q180 586 178 589T174 596Q171 600 169 606Q193 629 217 650T261 687T294 714T307 724Q311 724 314 720T319 711T322 701T324 695Q323 694 311 684T278
658T233 623T182 586Z" />
<glyph unicode="&#xf4;" glyph-name="ocircumflex" horiz-adv-x="396" d="M37 248Q37 388 82 449T204 510Q242 510 271 498T319 457T349 377T359 249Q359 117 316 54T193 -10Q158 -10 129 -2T80 34T48 112T37 248ZM71 242Q71 175 79 132T103 65T142 31T194 21Q254
21 289 76T325 252Q325 321 317 365T293 434T254 469T203 479Q173 479 149 467T107 427T81 354T71 242ZM195 709Q199 711 205 711Q213 711 220 703L268 655Q286 637 301 621T317 604Q317 602 309 595T289 587Q265 611 247 631Q231 648 218 662T204 679Q179 653
159 633Q142 616 127 602T109 588Q97 588 92 594T85 603L195 709Z" />
<glyph unicode="&#xf5;" glyph-name="otilde" horiz-adv-x="396" d="M37 248Q37 388 82 449T204 510Q242 510 271 498T319 457T349 377T359 249Q359 117 316 54T193 -10Q158 -10 129 -2T80 34T48 112T37 248ZM71 242Q71 175 79 132T103 65T142 31T194 21Q254 21
289 76T325 252Q325 321 317 365T293 434T254 469T203 479Q173 479 149 467T107 427T81 354T71 242ZM64 624Q87 663 109 674T157 686Q175 686 186 678T206 659T225 641T252 632Q273 632 285 640T306 657T318 674T326 682Q330 682 333 679T338 672Q341 668 343 663Q338
653 331 642T313 622T287 606T250 599Q227 599 214 608T191 628T172 648T150 657Q135 657 124 649T105 632T92 614T84 606Q77 606 70 615Q66 619 64 624Z" />
<glyph unicode="&#xf6;" glyph-name="odieresis" horiz-adv-x="396" d="M37 248Q37 388 82 449T204 510Q242 510 271 498T319 457T349 377T359 249Q359 117 316 54T193 -10Q158 -10 129 -2T80 34T48 112T37 248ZM71 242Q71 175 79 132T103 65T142 31T194 21Q254
21 289 76T325 252Q325 321 317 365T293 434T254 469T203 479Q173 479 149 467T107 427T81 354T71 242ZM104 658Q104 671 112 681T134 691Q149 691 158 682T167 658Q167 643 158 634T134 624Q104 624 104 658ZM244 658Q244 671 252 681T274 691Q289 691 297 682T306
658Q306 643 297 634T274 624Q244 624 244 658Z" />
<glyph unicode="&#xf7;" glyph-name="divide" horiz-adv-x="445" d="M48 265Q48 285 49 291T59 298H398Q398 278 397 272T387 265H48ZM188 148Q188 162 196 171T219 181Q234 181 242 172T251 148Q251 133 242 124T219 114Q204 114 196 123T188 148ZM188 410Q188
424 196 433T219 443Q234 443 242 434T251 410Q251 395 242 386T219 376Q204 376 196 385T188 410Z" />
<glyph unicode="&#xf8;" glyph-name="oslash" horiz-adv-x="434" d="M59 -19Q57 -19 48 -16T38 -3Q38 -3 43 6T56 28T72 53T84 73Q73 102 68 145T62 248Q62 388 106 449T227 510Q263 510 291 499T339 461L377 522Q383 521 388 518Q392 516 395 513T399 506Q399
505 394 497T382 477T368 453T355 433Q369 403 376 358T383 249Q383 117 341 54T224 -10Q182 -10 151 0T98 44Q93 35 86 24T73 4T63 -12T59 -19ZM349 252Q349 306 344 344T329 408Q318 390 300 361T262 297T219 227T178 160T144 106T123 72Q139 43 163 32T219 21Q279
21 314 76T349 252ZM96 242Q96 149 112 101L316 435Q301 460 279 469T228 479Q198 479 174 467T132 427T106 354T96 242Z" />
<glyph unicode="&#xf9;" glyph-name="ugrave" horiz-adv-x="437" d="M368 23Q331 5 291 -2T215 -10Q171 -10 143 0T99 32T76 91T69 180V489Q69 493 69 495T73 499T82 500T102 500V174Q102 130 107 101T125 54T162 29T222 21Q242 21 274 26T335 48V489Q335 497
340 498T368 500V23ZM251 594Q251 594 241 602T215 621T181 647T147 673T120 693T109 702Q109 703 110 708T114 718T119 727T126 731Q126 731 136 723T161 702T194 675T227 647T252 625T264 614Q262 608 259 604Q257 600 255 597T251 594Z" />
<glyph unicode="&#xfa;" glyph-name="uacute" horiz-adv-x="437" d="M368 23Q331 5 291 -2T215 -10Q171 -10 143 0T99 32T76 91T69 180V489Q69 493 69 495T73 499T82 500T102 500V174Q102 130 107 101T125 54T162 29T222 21Q242 21 274 26T335 48V489Q335 497
340 498T368 500V23ZM200 586Q198 586 196 589T192 596Q189 600 187 606Q211 629 235 650T279 687T312 714T325 724Q329 724 332 720T337 711T340 701T342 695Q341 694 329 684T296 658T251 623T200 586Z" />
<glyph unicode="&#xfb;" glyph-name="ucircumflex" horiz-adv-x="437" d="M368 23Q331 5 291 -2T215 -10Q171 -10 143 0T99 32T76 91T69 180V489Q69 493 69 495T73 499T82 500T102 500V174Q102 130 107 101T125 54T162 29T222 21Q242 21 274 26T335 48V489Q335
497 340 498T368 500V23ZM214 709Q218 711 224 711Q232 711 239 703L287 655Q305 637 320 621T336 604Q336 602 328 595T308 587Q284 611 266 631Q250 648 237 662T223 679Q198 653 178 633Q161 616 146 602T128 588Q116 588 111 594T104 603L214 709Z" />
<glyph unicode="&#xfc;" glyph-name="udieresis" horiz-adv-x="437" d="M368 23Q331 5 291 -2T215 -10Q171 -10 143 0T99 32T76 91T69 180V489Q69 493 69 495T73 499T82 500T102 500V174Q102 130 107 101T125 54T162 29T222 21Q242 21 274 26T335 48V489Q335 497
340 498T368 500V23ZM122 658Q122 671 130 681T152 691Q167 691 176 682T185 658Q185 643 176 634T152 624Q122 624 122 658ZM262 658Q262 671 270 681T292 691Q307 691 315 682T324 658Q324 643 315 634T292 624Q262 624 262 658Z" />
<glyph unicode="&#xfd;" glyph-name="yacute" horiz-adv-x="381" d="M42 488Q39 497 43 498T72 500L165 160Q172 134 177 110T187 65Q191 42 196 21Q200 42 204 65Q208 85 213 110T225 161L310 488Q312 497 316 498T347 500L207 -34Q183 -123 150 -158T72 -193Q43
-193 25 -188T6 -171Q6 -166 8 -160T15 -150Q27 -156 44 -159T72 -162Q104 -162 131 -130T179 -16L42 488ZM176 586Q174 586 172 589T168 596Q165 600 163 606Q187 629 211 650T255 687T288 714T301 724Q305 724 308 720T313 711T316 701T318 695Q317 694 305 684T272
658T227 623T176 586Z" />
<glyph unicode="&#xfe;" glyph-name="thorn" horiz-adv-x="413" d="M99 488Q124 499 150 504T209 509Q248 509 279 499T331 463T364 395T375 289Q375 223 366 175T341 94T306 41T266 9T226 -5T191 -9Q155 -9 133 2T99 27V-198Q94 -200 90 -200T81 -200Q73 -200
70 -199T66 -189V717Q66 731 73 733T99 735V488ZM99 67Q115 43 137 33T186 22Q204 22 230 31T281 67T323 145T341 283Q341 341 332 379T305 439T264 469T210 478Q176 478 149 470T99 447V67Z" />
<glyph unicode="&#xff;" glyph-name="ydieresis" horiz-adv-x="381" d="M42 488Q39 497 43 498T72 500L165 160Q172 134 177 110T187 65Q191 42 196 21Q200 42 204 65Q208 85 213 110T225 161L310 488Q312 497 316 498T347 500L207 -34Q183 -123 150 -158T72 -193Q43
-193 25 -188T6 -171Q6 -166 8 -160T15 -150Q27 -156 44 -159T72 -162Q104 -162 131 -130T179 -16L42 488ZM98 658Q98 671 106 681T128 691Q143 691 152 682T161 658Q161 643 152 634T128 624Q98 624 98 658ZM238 658Q238 671 246 681T268 691Q283 691 291 682T300
658Q300 643 291 634T268 624Q238 624 238 658Z" />
<glyph unicode="&#x2013;" glyph-name="endash" horiz-adv-x="446" d="M48 265Q48 285 49 291T59 298H398Q398 278 397 272T387 265H48Z" />
<glyph unicode="&#x2014;" glyph-name="emdash" horiz-adv-x="700" d="M6 265Q6 285 7 291T17 298H694Q694 278 693 272T683 265H6Z" />
<glyph unicode="&#x2018;" glyph-name="quoteleft" horiz-adv-x="146" d="M100 614Q100 600 92 592T70 583Q56 583 49 590T41 620Q41 641 46 670T59 725T75 770T89 788Q94 788 99 784T105 774Q93 746 88 709T84 646Q91 642 95 634T100 614Z" />
<glyph unicode="&#x2019;" glyph-name="quoteright" horiz-adv-x="146" d="M46 748Q46 762 54 771T76 780Q90 780 98 773T106 742Q106 721 101 693T87 638T71 593T57 575Q52 575 47 579T41 588Q47 602 51 619T57 653T61 687T62 716Q55 721 51 729T46 748Z" />
<glyph unicode="&#x201a;" glyph-name="quotesinglbase" horiz-adv-x="146" d="M46 63Q46 77 54 86T76 95Q90 95 98 88T106 57Q106 36 101 7T87 -48T71 -92T57 -111Q52 -111 47 -107T41 -97Q47 -83 51 -66T57 -32T61 2T62 31Q55 36 51 44T46 63Z" />
<glyph unicode="&#x201c;" glyph-name="quotedblleft" horiz-adv-x="275" d="M100 614Q100 600 92 592T70 583Q56 583 49 590T41 620Q41 641 46 670T59 725T75 770T89 788Q94 788 99 784T105 774Q93 746 88 709T84 646Q91 642 95 634T100 614ZM229 614Q229 600
221 592T199 583Q185 583 178 590T170 620Q170 641 175 670T188 725T204 770T218 788Q223 788 228 784T234 774Q222 746 217 709T213 646Q220 642 224 634T229 614Z" />
<glyph unicode="&#x201d;" glyph-name="quotedblright" horiz-adv-x="275" d="M175 748Q175 762 183 771T205 780Q219 780 226 773T234 742Q234 721 229 693T216 638T200 593T186 575Q181 575 176 579T170 588Q176 602 180 619T186 653T190 687T191 716Q184 721
180 729T175 748ZM46 748Q46 762 54 771T76 780Q90 780 98 773T106 742Q106 721 101 693T87 638T71 593T57 575Q52 575 47 579T41 588Q47 602 51 619T57 653T61 687T62 716Q55 721 51 729T46 748Z" />
<glyph unicode="&#x201e;" glyph-name="quotedblbase" horiz-adv-x="275" d="M175 63Q175 77 183 86T205 95Q219 95 226 88T234 57Q234 36 229 7T216 -48T200 -92T186 -111Q181 -111 176 -107T170 -97Q176 -83 180 -66T186 -32T190 2T191 31Q184 36 180 44T175
63ZM46 63Q46 77 54 86T76 95Q90 95 98 88T106 57Q106 36 101 7T87 -48T71 -92T57 -111Q52 -111 47 -107T41 -97Q47 -83 51 -66T57 -32T61 2T62 31Q55 36 51 44T46 63Z" />
<glyph unicode="&#x2022;" glyph-name="bullet" horiz-adv-x="205" d="M60 281Q60 303 73 319T109 335Q133 335 147 319T161 281Q161 257 147 241T109 225Q85 225 73 240T60 281Z" />
<glyph unicode="&#x2039;" glyph-name="guilsinglleft" horiz-adv-x="265" d="M37 250Q37 253 43 266T60 297T84 337T112 382Q145 435 188 500Q193 500 196 497T203 491Q207 487 209 483Q209 480 203 468T187 439T165 402T139 360Q108 311 69 250Q109 189 141
141Q154 120 167 100T190 64T207 36T213 22Q211 15 208 11Q202 0 195 0Q150 64 116 117Q101 139 87 161T62 202T44 233T37 250Z" />
<glyph unicode="&#x203a;" glyph-name="guilsinglright" horiz-adv-x="265" d="M228 250Q228 246 221 233T203 202T178 162T149 117Q115 64 71 0Q65 1 61 4Q57 6 54 10T51 22Q51 24 57 35T73 62T96 99T123 140L195 250Q156 311 125 360Q112 381 100 401T78 439T62
468T56 483Q56 488 59 491T66 496Q70 499 77 500Q119 435 152 382Q166 359 180 337T204 297T221 266T228 250Z" />
</font>
</defs>
</svg>
